<?xml version="1.0" encoding="utf-8"?>
<!-- Generator: Adobe Illustrator 19.0.0, SVG Export Plug-In . SVG Version: 6.00 Build 0)  -->
<svg version="1.1" id="_x31_6_Hospital" xmlns="http://www.w3.org/2000/svg" xmlns:xlink="http://www.w3.org/1999/xlink" x="0px"
	 y="0px" viewBox="643.1 244 1384.4 306" style="enable-background:new 643.1 244 1384.4 306;" xml:space="preserve">
<style type="text/css">
	.st0{fill:#181E37;}
	.st1{fill:#564644;}
	.st2{fill:#EF3741;}
	.st3{fill:#76B84F;}
	.st4{fill:url(#XMLID_2_);}
	.st5{fill:url(#XMLID_3_);}
	.st6{font-family:'Harrington';}
	.st7{font-size:72px;}
	.st8{fill:#09AABB;}
</style>
<path class="st0" d="M725.4,457.9c0-4.9,0-9.7,0-14.6c0-0.9,0-1.9-0.1-2.8c-0.2-1.7-0.8-2.2-3.2-2.5c-0.8-0.1-1.6-0.1-2.4-0.2
	c-26.2-2.2-47-16.6-50.8-35.5c-2.3-11.4,1.2-21.9,10.6-31.3c0.8-0.7,1.6-1.5,2.3-2.2c0.8-0.9,0.7-1.7-0.1-2.6
	c-1.5-1.5-3.1-3-4.5-4.5c-18.4-20.9-8.3-51.1,27.3-61.6c26.3-7.7,56-0.6,71.1,16.8c12.4,14.3,11.5,33.3-2.3,46.9
	c-0.8,0.8-1.7,1.7-2.6,2.5c-0.8,0.9-0.8,1.7,0.1,2.6c0.8,0.8,1.7,1.7,2.6,2.5c18.9,19,13,46.9-16.4,60.3c-7.3,3.3-15.3,5.3-23.8,6
	c-0.6,0.1-1.3,0.1-1.9,0.1c-3.7,0.3-4.3,0.7-4.3,3.6c-0.1,10.2,0,20.4,0,30.6c0,1.2-0.1,2.3-0.2,3.5c0,0.1-0.4,0.4-0.6,0.4
	c-0.2,0-0.6-0.2-0.6-0.4c-0.1-0.9-0.2-1.8-0.2-2.8C725.4,467.9,725.4,462.9,725.4,457.9z M727,402.2c0,9.9,0,19.7,0,29.6
	c0,1.2,0,2.3,0.2,3.5c0.2,0.9,1,1.5,2.3,1.5c1.9,0,3.9-0.1,5.7-0.3c42-5.2,62.3-40.6,35.2-65.6c-3.7-3.5-3.6-2.9,0.1-6.3
	c9.9-9.3,13.9-19.7,11.5-31.4c-4.4-21.8-33.1-37.5-63.2-34.3c-21.3,2.3-36.7,10.9-44.8,25.3c-8,14.4-4.8,28,8,40.4
	c0.7,0.6,1.5,1.2,2.1,1.9c0.9,0.9,0.9,1.6-0.1,2.5c-0.8,0.8-1.8,1.6-2.7,2.5c-26,24.9-5.8,60.4,37,65.1c1.4,0.2,2.9,0.2,4.3,0.2
	c1.5,0,2.3-0.6,2.5-1.8c0.2-1.2,0.2-2.3,0.2-3.5c0-19.4,0-38.8,0-58.2c0-1.2,0-2.3,0.1-3.5c0-0.3,0.3-0.7,0.9-0.6
	c0.2,0,0.4,0.3,0.5,0.5c0.1,1,0.1,2.1,0.1,3.1C727,382.7,727,392.4,727,402.2z"/>
<path class="st1" d="M1840.1,549.9c114.9,0,230,0,344.9,0c1.6,0,3.1,0,4.7,0c2.4-0.1,3.1-0.8,3.2-2.8c0-0.5,0-0.8,0-1.3
	c0-8.8,0-17.6,0-26.4c0-0.6,0-1.2-0.1-1.8c-0.2-1.3-1.1-2.2-2.6-2.3c-1.4-0.1-2.7-0.1-4.1-0.1c-40.7,0-81.3,0-121.9,0
	c-189.4,0-378.9,0-568.4,0c-1.5,0-2.9,0-4.4,0c-3.4,0.1-4.1,0.7-4.2,3.7c0,0.2,0,0.5,0,0.8c0,8.6,0,17.3,0,25.8c0,0.6,0,1.2,0.1,1.8
	c0.2,1.7,1,2.4,3,2.5c1.6,0.1,3.1,0.1,4.7,0.1C1610.1,549.9,1725,549.9,1840.1,549.9z"/>
<path class="st1" d="M765,518c-124.8,0-249.7,0-374.6,0c-1.6,0-3.1,0-4.8,0c-2.7,0.1-3.5,0.6-3.6,3c-0.1,0.7,0,1.5,0,2.3
	c0,7,0,14.1,0,21.3c0,0.7,0,1.5,0,2.3c0.1,2.6,1,3.2,4.2,3.3c1.5,0,2.9,0,4.4,0c249.6,0,499.4,0,749,0c1.2,0,2.5,0,3.8,0
	c4.2-0.1,5-0.6,5-4.2c0-8.1,0-16,0-24c0-0.2,0-0.5,0-0.9c-0.2-2.2-0.9-2.8-3.6-3c-1.6-0.1-3.1,0-4.8,0C1015,518,890,518,765,518z"/>
<path class="st1" d="M1371.1,545.4c144.5,0,289,0,433.5,0c0.9,0,1.9,0,2.8,0c2.2-0.1,2.7-0.5,2.7-2.4c0.1-2.6,0-5.2,0-7.7
	c0-2.6-0.6-3.1-3.6-3.1c-4.3,0-8.5,0-12.8,0c-192.5,0-385,0-577.5,0c-46.6,0-93.1,0-139.7,0c-46.2,0-92.5,0-138.7,0
	c-1,0-2.1,0-3.1,0.1c-1.8,0.1-2.5,0.7-2.6,2.2c-0.1,3-0.1,6,0,9.1c0,1.4,0.6,1.8,2.2,2c1.4,0.1,2.7,0.1,4.1,0.1
	C1082.7,545.4,1226.9,545.4,1371.1,545.4z"/>
<path class="st1" d="M1738.8,423.8c0-13.2,0-26.5,0-39.7c0-0.4,0-0.7,0-1.1c0.1-1.8,0.6-2.2,2.6-2.3c3-0.1,6,0,9,0s3.5-0.5,3.6-3.1
	c0.1-1.6,0.1-3.2,0.1-4.9c0-3,0.4-3.3,3.8-3.3c7.6,0,15.2,0,22.8,0c7.9,0,15.9,0,23.8,0c0.7,0,1.4,0,2,0c1.8,0.1,2.4,0.6,2.4,2.2
	c0.1,1.9,0,3.8,0,5.7c0,2.8,0.6,3.3,3.9,3.3c3.4,0,6.8,0,10.2,0c3,0,3.4,0.3,3.9,2.8c2.7,13.6,5.4,27.1,8.1,40.7
	c0.7,3.5,1.5,6.9,2,10.4c0.4,2.7,1.8,4.1,5,4.8c9.1,2,18.1,4.2,27.2,6.3c4.1,1,4.2,1,4.2,4.6c0,4.5,0,9,0,13.5c0,2.7-0.4,3-3.6,3.1
	c-3.2,0-6.3,0-9.5,0c-2.6,0-2.9-0.3-3.3-2.5c-1.2-8.1-8-14.1-17.4-15c-9.7-0.9-19.4,5-21.1,14.1c-0.6,3.3-0.6,3.3-4.5,3.3
	c-7.5,0-15,0-22.5,0c-0.6,0-1.2,0-1.8,0c-1.3,0-2.1-0.6-2.2-1.7c-0.1-0.4-0.1-0.7-0.1-1.1c-1.3-8.3-9.4-14.6-19.1-14.8
	c-9.3-0.2-17.8,6-19.4,14.2c-0.7,3.4-0.7,3.4-4.6,3.4c-1.1,0-2.2,0-3.3,0c-1.6-0.1-2.1-0.6-2.2-1.9c-0.1-0.5,0-1,0-1.5
	C1738.8,450.1,1738.8,437,1738.8,423.8z M1740.6,423.7c0,12.3,0,24.6,0,36.9c0,0.8,0,1.6,0.1,2.4c0.2,1.5,0.8,2,2.3,2.2
	c2.2,0.3,3.4-0.2,4-1.6c0.4-1.1,0.6-2.3,1.1-3.4c2.4-6.7,10.2-13,21.2-12.5c10.1,0.4,17.6,6.1,19.9,14.6c0.7,2.6,1.1,2.9,4.4,3
	c6.1,0,12.1,0,18.2,0c0.8,0,1.5,0,2.3,0c1.5,0,2.4-0.6,2.7-1.9c0.3-0.9,0.5-1.9,0.8-2.8c2.8-7.1,8.5-11.5,17.1-12.6
	s15.6,1.5,20.7,7.6c1.9,2.2,2.9,4.6,3.5,7.3c0.5,2,1.1,2.4,3.5,2.5c2.1,0,4.3,0.1,6.4,0c2-0.1,2.7-0.6,2.7-2.3c0.1-4.3,0-8.5,0-12.8
	c0-1.4-0.8-2.2-2.3-2.6c-0.7-0.2-1.5-0.4-2.2-0.5c-9.2-2.2-18.4-4.4-27.6-6.5c-2.1-0.5-3.3-1.4-3.7-3.4c-3.2-16.5-6.5-32.9-9.7-49.4
	c-0.2-0.9-0.3-1.9-0.6-2.8c-0.5-2-1.1-2.5-3.4-2.6c-0.8,0-1.5,0-2.3,0c-6.1,0-12.3,0-18.4,0c-13.9,0-27.8,0.1-41.7,0.1
	c-4.6,0-9.2-0.1-13.8-0.1c-4.8,0-5.1,0.3-5.1,4.4C1740.6,398.9,1740.6,411.3,1740.6,423.7z M1794.5,380.6L1794.5,380.6
	c3.2,0,6.5,0,9.7,0c2.1,0,2.8-0.7,2.9-2.4c0.1-1.6,0.1-3.2,0-4.9c-0.1-1.7-0.8-2.3-2.7-2.3c-6.4-0.1-12.8-0.1-19.2,0
	c-2,0-2.6,0.6-2.7,2.3c-0.1,1.5-0.1,2.9,0,4.4c0.1,2.4,0.6,2.9,3.3,2.9C1788.7,380.7,1791.6,380.6,1794.5,380.6z"/>
<path class="st1" d="M1754.1,466.1c0-7,6.2-12.3,14.2-12.3c7.8,0,14.1,5.5,14.1,12.3c0,6.9-6.4,12.4-14.3,12.3
	C1760.3,478.3,1754.1,472.9,1754.1,466.1z"/>
<path class="st1" d="M1852,465.9c0,6.9-6.2,12.4-14.2,12.4c-7.9,0-14.1-5.4-14.1-12.2c0-7,6.1-12.3,14.2-12.4
	C1845.7,453.7,1852,459.2,1852,465.9z"/>
<path class="st1" d="M1746.4,415.6c0-6.6,0-13.2,0-19.9c0-0.7,0-1.3,0-2c0.2-1.5,0.7-1.9,2.3-2.1c0.7-0.1,1.4,0,2,0
	c10,0,20,0,29.9,0c0.6,0,1.2,0,1.8,0c2,0.1,2.5,0.6,2.6,2.3c0,0.4,0,0.9,0,1.3c0,13.6,0,27.2,0,40.8c0,3.6-0.2,3.8-4.3,3.8
	c-10.1,0-20.1,0-30.2,0c-0.7,0-1.4,0-2,0c-1.5-0.2-2-0.6-2.2-2c-0.1-0.7,0-1.3-0.1-2C1746.4,429.2,1746.4,422.4,1746.4,415.6z"/>
<path class="st1" d="M1790.6,415.7c0-6.7,0-13.4,0-20.1c0-0.7,0-1.3,0.1-2c0.2-1.3,0.7-1.8,2.3-1.9c0.5-0.1,1,0,1.5,0
	c7.6,0,15.2,0,22.8,0c3.5,0,3.9,0.3,4.5,3.3c2.7,13.6,5.4,27.1,8.1,40.7c0.8,4.1,0.6,4.3-4.2,4.3c-10.1,0-20.3,0-30.4,0
	c-0.8,0-1.5,0-2.3-0.1c-1.6-0.2-2.1-0.6-2.2-2c-0.1-0.7-0.1-1.3-0.1-2C1790.6,429.2,1790.6,422.4,1790.6,415.7z"/>
<path class="st2" d="M1811.5,452c0,1.1-0.5,1.8-1.8,2c-0.3,0.1-0.7,0-1,0.1c-2.1,0.3-2.4,0.5-2.7,2.3c-0.1,0.4-0.1,0.9-0.2,1.3
	c-0.3,0.9-1.2,1.2-2.2,1.2s-1.9-0.3-2.2-1.2c-0.1-0.3-0.2-0.7-0.2-1.1c-0.4-2.2-0.4-2.2-2.9-2.6c-1.1-0.1-2-0.4-2.3-1.4
	c-0.4-1.4,0.3-2.6,2-2.7c2.2-0.1,3.1-1,3.3-2.9c0.1-1.3,0.9-1.8,2.3-1.8s2.1,0.5,2.4,1.8c0.5,2.4,0.5,2.4,3.5,2.8
	C1810.9,450.2,1811.5,450.7,1811.5,452z"/>
<g>
	<path class="st3" d="M1288.7,477.4c299.6,0,599.1,0,898.7,0c1.3,0,2.8,0,4,0c1.6,0,2.5,0.6,2.6,1.5c0,0.5,0,1,0,1.5
		c0,13.4,0,26.8,0,40.2c0,0.3,0,0.5,0,0.8c0,2-0.7,2.4-3.8,2.4c-1,0-2,0-3,0c-599.1,0-1198.4,0-1797.6,0c-1.3,0-2.9,0-4.4,0
		c-1.6,0-2.5-0.6-2.6-1.5c0-0.5,0-1,0-1.4c0-13.5,0-27,0-40.4c0-0.4,0-0.9,0-1.3c0-1.1,1-1.6,2.7-1.6c1.2,0,2.7,0,3.9,0
		C689.4,477.4,989,477.4,1288.7,477.4z"/>
</g>
<g>
	<path class="st3" d="M806.1,427.5c-19.3-0.6-36.3-7.2-46-20.7c-9.7-13.6-7.1-26.7,6.4-38.8c0.3-0.3,0.6-0.6,1-0.8
		c0.7-0.6,0.7-1.3,0-1.9c-1-0.9-2-1.7-3-2.6c-13.6-12.9-13.2-30.3,1-42.9c0.6-0.5,1.2-1,1.8-1.6c1.1-1,1.2-1.4,0-2.4
		c-2.3-1.9-4.4-4-6.2-6.1c-10.7-13.1-7.9-30.1,6.9-41.3c11.2-8.5,25.4-12.7,42.2-12.5c28.6,0.2,52,15.6,53.3,34.8
		c0.6,9.2-3.3,17.4-11.8,24.6c-0.3,0.2-0.6,0.5-0.8,0.7c-1,1-1,1.3,0.1,2.3c0.7,0.6,1.4,1.2,2.1,1.8c14.4,13,14.2,31.1-0.6,43.9
		c-3.1,2.7-2.9,2.3,0,4.9c19.8,17.3,12.5,42.6-15.5,53.7C828.3,425.8,819,427.4,806.1,427.5z"/>
	<path class="st3" d="M1995.5,322.6c-0.2,10.6-4.6,19.8-13.4,27.9c-2.6,2.3-2.6,2.3,0,4.7c18,16.5,17.9,39.3-0.2,55.7
		c-17,15.3-46.8,20.8-72.2,13.2c-37.7-11.3-50.2-45.2-25.1-68.5c3.1-2.9,3-2.7,0-5.4c-18.5-17.2-17.3-41.3,3.1-57.3
		c11-8.7,24.7-13.5,41-14.4c33.9-2,63.6,16.2,66.6,40.4C1995.4,320.2,1995.5,321.6,1995.5,322.6z"/>
</g>
<path class="st0" d="M811.2,408.8c0,20.7,0,41.4,0,62.2c0,1.5-0.1,2.9-0.1,4.4c0,0.2-0.3,0.6-0.5,0.7c-0.7,0.2-0.9-0.3-0.9-0.7
	c-0.1-1.3-0.1-2.6-0.1-4c0-42,0-84.1,0-126.1c0-1.3,0.1-2.6,0.1-4c0-0.2,0.2-0.6,0.5-0.7c0.6-0.2,0.9,0.3,1,0.7
	c0.1,1.5,0.1,2.9,0.1,4.4C811.2,366.8,811.2,387.8,811.2,408.8z"/>
<path class="st0" d="M1935.5,408.4c0,20.9,0,41.8,0,62.7c0,1.5-0.1,2.9-0.2,4.4c0,0.2-0.4,0.5-0.6,0.5c-0.3,0-0.6-0.3-0.7-0.5
	c-0.1-0.4-0.2-0.9-0.2-1.3c0-1.2,0-2.4,0-3.5c0-41.5,0-83,0-124.5c0-1.6,0.1-3.2,0.2-4.8c0-0.2,0.4-0.5,0.7-0.5
	c0.2,0,0.6,0.3,0.6,0.5c0.1,1.5,0.2,2.9,0.2,4.4C1935.5,366.6,1935.5,387.5,1935.5,408.4z"/>
<path class="st3" d="M1217.8-187.7c1.1-0.2,2,0.3,2.5,1.3c0.6,1.4-0.5,3-2,2.9c-1.2-0.1-2-0.8-2.1-1.9
	C1216.1-186.6,1216.6-187.4,1217.8-187.7z"/>
<g>
	<g id="XMLID_79_">
		
			<linearGradient id="XMLID_2_" gradientUnits="userSpaceOnUse" x1="1031.1653" y1="380.8486" x2="1050.8339" y2="380.8486" gradientTransform="matrix(1 0 0 -1 0 802)">
			<stop  offset="0" style="stop-color:#FFFFFF"/>
			<stop  offset="0" style="stop-color:#EF888E"/>
			<stop  offset="0.7398" style="stop-color:#EF3741"/>
		</linearGradient>
		<path id="XMLID_83_" class="st4" d="M1049.9,403.8c-3.8,2-6.7,4.6-7.5,8.6c-0.4,1.7,0.1,3,1.4,4.1c1.7,1.3,3.4,2.6,5.1,3.9
			s2.3,3,1.9,5c-0.9,4.9-3.8,8.8-7,12.6c-0.9,1-2.7,0.4-3-1.1c-0.2-1-0.2-2-0.2-3.1c0-3.8,0-3.8-4.1-3.8c-4.8,0-5.3-0.4-5.3-4.9
			c0-3.1,0-6.1,0-9.2c0-2,1.1-3.1,3.3-3.1c1.5-0.1,3.1-0.1,4.7,0c1,0.1,1.4-0.4,1.4-1.3c-0.1-1.4,0-2.8,0-4.3c0.1-2.3,1-3.2,3.4-3.4
			c0.1,0,0.2,0,0.3,0C1046.1,403.8,1047.9,403.8,1049.9,403.8z"/>
		
			<linearGradient id="XMLID_3_" gradientUnits="userSpaceOnUse" x1="1045.6683" y1="380.9213" x2="1067.3702" y2="380.9213" gradientTransform="matrix(1 0 0 -1 0 802)">
			<stop  offset="0" style="stop-color:#FFFFFF"/>
			<stop  offset="0" style="stop-color:#00A8BB"/>
			<stop  offset="0.3225" style="stop-color:#02A8BB"/>
			<stop  offset="0.4386" style="stop-color:#09A9BB"/>
			<stop  offset="0.5215" style="stop-color:#14AABB"/>
			<stop  offset="0.5884" style="stop-color:#25ACBB"/>
			<stop  offset="0.6451" style="stop-color:#3BAFBB"/>
			<stop  offset="0.6786" style="stop-color:#4CB1BB"/>
		</linearGradient>
		<path id="XMLID_82_" class="st5" d="M1053.9,438.6c0.8-2.2,1.7-4.3,2.3-6.5c0.9-3,1.3-6,0.6-9.1c-0.9-3.5-3.1-5.9-6.6-7.5
			c-1-0.4-2-0.8-2.9-1.4c-1.7-1-2.1-2.6-1.4-4.3c1.4-3.3,4.1-5.3,7.6-6.2c2.5-0.6,4.5,0.8,4.3,3.3c-0.1,1.3,0.1,2.6-0.1,4
			c-0.1,1.1,0.3,1.6,1.6,1.6c1.5-0.1,3.1-0.1,4.7,0c2,0.1,3.1,1,3.1,2.9c0.1,3.9,0.1,7.7,0,11.6c0,1.9-1.2,2.9-3.3,3
			c-1.5,0.1-2.9,0.1-4.4-0.1c-1.5-0.1-1.8,0.5-1.8,1.8c0.1,1.3,0.1,2.6,0,3.8C1057.9,438,1056.6,439,1053.9,438.6z"/>
	</g>
	<text transform="matrix(1 0 0 1 1074.6542 439.803)" class="st2 st6 st7">e</text>
	<text transform="matrix(1 0 0 1 1110.0543 439.803)" class="st8 st6 st7">Med Technology</text>
</g>
</svg>
