<?xml version="1.0" encoding="utf-8"?>
<!-- Generator: Adobe Illustrator 19.0.0, SVG Export Plug-In . SVG Version: 6.00 Build 0)  -->
<svg version="1.1" id="_x31_6_Hospital" xmlns="http://www.w3.org/2000/svg" xmlns:xlink="http://www.w3.org/1999/xlink" x="0px"
	 y="0px" viewBox="817 349.9 2246 95.1" style="enable-background:new 817 349.9 2246 95.1;" xml:space="preserve">
<style type="text/css">
	.st0{fill:#564644;}
	.st1{fill:#76B84F;}
</style>
<path class="st0" d="M2760.2,693c-372.7,0-745.4,0-1118.5,0c-4.9,0-9.4,0-14.2,0c-8.1,0.2-10.4,0.8-10.7,3.7c-0.3,0.9,0,1.9,0,2.9
	c0,8.9,0,17.7,0,26.9c0,0.9,0,1.9,0,2.9c0.3,3.3,2.9,4.1,12.6,4.2c4.5,0,8.7,0,13.3,0c745.1,0,1490.8,0,2235.9,0c3.6,0,7.4,0,11.3,0
	c12.6-0.2,14.9-0.8,14.9-5.3c0-10.2,0-20.2,0-30.3c0-0.3,0-0.6,0-1.1c-0.6-2.8-2.6-3.6-10.7-3.7c-4.9-0.2-9.4,0-14.2,0
	C3506.6,693,3133.6,693,2760.2,693z"/>
<g>
	<path class="st1" d="M2766.1,634.5c380.9,0,761.6,0,1142.5,0c1.7,0,3.6,0,5.1,0c2,0,3.1,1,3.3,2.4c0,0.8,0,1.6,0,2.4
		c0,21,0,42,0,63c0,0.5,0,0.8,0,1.3c0,3.1-0.9,3.7-4.8,3.7c-1.3,0-2.6,0-3.8,0c-761.6,0-1523.3,0-2285.1,0c-1.7,0-3.7,0-5.5,0
		c-2,0-3.1-1-3.3-2.4c0-0.8,0-1.6,0-2.2c0-21.2,0-42.3,0-63.4c0-0.6,0-1.4,0-2c0-1.7,1.3-2.5,3.4-2.5c1.6,0,3.4,0,5,0
		C2004.2,634.5,2385.1,634.5,2766.1,634.5z"/>
</g>
</svg>
