<?xml version="1.0" encoding="utf-8"?>
<!-- Generator: Adobe Illustrator 19.0.0, SVG Export Plug-In . SVG Version: 6.00 Build 0)  -->
<svg version="1.1" id="Layer_1" xmlns="http://www.w3.org/2000/svg" xmlns:xlink="http://www.w3.org/1999/xlink" x="0px" y="0px"
	 viewBox="494 97 1600 600" style="enable-background:new 494 97 1600 600;" xml:space="preserve">
<style type="text/css">
	.st0{fill:#A6DDE9;}
	.st1{fill:#FFFFFF;}
	.st2{fill:#564644;}
	.st3{fill:#564644;stroke:#564644;stroke-miterlimit:10;}
	.st4{fill:#B6DEC2;}
	.st5{fill:#C0282D;}
	.st6{fill:#F2F2F2;}
	.st7{fill:#4D1E33;}
	.st8{fill:#FECC83;}
	.st9{fill:#FFDFA4;}
	.st10{fill:#333333;}
	.st11{fill:#00AC9C;}
	.st12{opacity:0.5;}
	.st13{fill:#DFC58E;}
	.st14{fill:#715F54;}
	.st15{fill:none;stroke:#715F54;stroke-width:2.2378;stroke-miterlimit:10;}
	.st16{fill:#E2742A;}
	.st17{fill:#F9D675;}
	.st18{fill:#7052A2;}
	.st19{fill:#DFBB6F;}
	.st20{fill:none;stroke:#05B2BF;stroke-width:1.6534;stroke-miterlimit:10;}
	.st21{fill:none;stroke:#05B2BF;stroke-width:1.6838;stroke-miterlimit:10;}
	.st22{fill:none;stroke:#05B2BF;stroke-width:1.8281;stroke-miterlimit:10;}
	.st23{fill:#69BD45;}
	.st24{fill:url(#XMLID_4_);}
	.st25{fill:url(#XMLID_5_);}
	.st26{fill:#EF3741;}
	.st27{font-family:'Harrington';}
	.st28{font-size:72px;}
	.st29{fill:#09AABB;}
</style>
<rect id="XMLID_1_" x="494" y="97" class="st0" width="1600.4" height="601.2"/>
<rect id="XMLID_2_" x="494" y="621" class="st1" width="1600.4" height="76.4"/>
<g id="XMLID_9_">
	<path id="XMLID_121_" class="st2" d="M2059.1,444.5c0,73.4,0,146.8,0,220.3c-247.6,0-495.2,0-742.9,0
		c-82.2-50.4-82.2-169.9,0-220.3C1563.9,444.5,1811.5,444.5,2059.1,444.5z"/>
</g>
<g id="XMLID_55_">
	<path id="XMLID_119_" class="st3" d="M1991.3,428.3c-202.1,0-404.1,0-606.2,0c-22.5,5.4-44.9,10.8-67.4,16.2c247,0,493.9,0,740.9,0
		C2036.2,439.1,2013.7,433.7,1991.3,428.3z"/>
</g>
<g id="XMLID_10_">
	<g id="XMLID_31_">
		<path id="XMLID_49_" class="st4" d="M1836.3,394.6c-4.6-4.3-9.4-21-9.4-21.1l0,0c0-6-6.9-10.9-15.4-10.9H1730
			c-8.5,0-15.4,4.9-15.4,10.9c0,0-4.7,16.8-9.4,21.1c-4.7,4.3-6.5,30.6,4.7,35.9s28.9,3.3,33.5-3.9h54.6c4.7,7.2,22.4,9.2,33.5,3.9
			C1842.8,425.2,1841,398.9,1836.3,394.6z"/>
		<ellipse id="XMLID_48_" class="st1" cx="1730.6" cy="422" rx="15.1" ry="10"/>
		<ellipse id="XMLID_47_" class="st1" cx="1811.6" cy="422" rx="15.1" ry="10"/>
		<g id="XMLID_43_">
			<path id="XMLID_46_" class="st4" d="M1770.8,260.5c-25.8,0-43.9,9.2-43.9,9.2l16.1,20.2h55.5l16.1-20.2
				C1814.6,269.7,1796.6,260.5,1770.8,260.5z"/>
			<ellipse id="XMLID_45_" class="st5" cx="1770.8" cy="272" rx="12.1" ry="8.5"/>
			<polygon id="XMLID_44_" class="st6" points="1779.2,270.4 1773.1,270.4 1773.1,266.1 1768.5,266.1 1768.5,270.4 1762.4,270.4 
				1762.4,273.6 1768.5,273.6 1768.5,277.9 1773.1,277.9 1773.1,273.6 1779.2,273.6 			"/>
		</g>
		<ellipse id="XMLID_42_" class="st7" cx="1770.8" cy="342" rx="33.8" ry="23.8"/>
		<path id="XMLID_41_" class="st8" d="M1785.9,345.8h-30.2c3.5,11.7-7.9,16.9-7.9,16.9s7.9,8.2,23,8.2s23-8.2,23-8.2
			S1782.4,357.5,1785.9,345.8z"/>
		<ellipse id="XMLID_40_" class="st9" cx="1770.8" cy="318.1" rx="49.2" ry="34.8"/>
		<path id="XMLID_39_" class="st7" d="M1770.8,282.5c-52.8,0-49.2,32.7-49.2,32.7c34,0,49.2-13.3,49.2-13.3s15.2,13.3,49.2,13.3
			C1820,315.2,1823.5,282.5,1770.8,282.5z"/>
		<path id="XMLID_38_" class="st10" d="M1750.1,317.5c-1,0-1.8,0.2-2.5,0.6c-1.3-1.2-1.8-2.8-1.8-2.8c-0.1-0.3-0.5-0.4-0.8-0.4
			c-0.4,0.1-0.6,0.3-0.5,0.6c0,0.1,0.7,1.9,2.2,3.3c-0.2,0.2-0.4,0.5-0.5,0.8c-2.3-0.7-3.4-2.1-3.5-2.2c-0.2-0.2-0.6-0.3-0.9-0.2
			c-0.3,0.1-0.5,0.4-0.3,0.7c0,0,1.5,1.9,4.6,2.7c0,0.1,0,0.1,0,0.1c-2.7,0.1-4.7-0.7-4.8-0.7c-0.3-0.1-0.8-0.1-1,0.2
			c-0.2,0.2-0.1,0.5,0.2,0.7c0.1,0.1,2.1,0.9,5,0.9c0.3,0,0.6,0,0.9,0c0.7,1,2.1,1.7,3.8,1.7c2.3,0,4.2-1.3,4.2-3
			C1754.3,318.8,1752.4,317.5,1750.1,317.5z"/>
		<path id="XMLID_37_" class="st10" d="M1801.4,320.2c-0.2-0.2-0.6-0.3-1-0.2c-0.1,0-2.1,0.8-4.8,0.7v-0.1c3.1-0.8,4.5-2.7,4.6-2.7
			c0.2-0.2,0.1-0.5-0.3-0.7c-0.3-0.1-0.8,0-0.9,0.2c0,0-1.1,1.4-3.5,2.2c-0.1-0.3-0.3-0.5-0.5-0.8c1.6-1.4,2.2-3.2,2.2-3.3
			c0.1-0.3-0.1-0.5-0.5-0.6c-0.4-0.1-0.8,0.1-0.8,0.4c0,0-0.6,1.6-1.8,2.8c-0.7-0.4-1.6-0.6-2.5-0.6c-2.3,0-4.2,1.3-4.2,3
			c0,1.6,1.9,3,4.2,3c1.7,0,3.1-0.7,3.8-1.7c0.3,0,0.6,0,0.9,0c2.9,0,4.9-0.9,5-0.9C1801.5,320.7,1801.6,320.4,1801.4,320.2z"/>
		<g id="XMLID_35_">
			<path id="XMLID_36_" class="st7" d="M1770.8,342.4c-6,0-13.1-3-13.1-6.9c0-0.5,0.6-1,1.4-1s1.4,0.4,1.4,1c0,2.6,5.7,4.9,10.3,4.9
				c4.5,0,10.3-2.3,10.3-4.9c0-0.5,0.6-1,1.4-1s1.4,0.4,1.4,1C1783.9,339.4,1776.8,342.4,1770.8,342.4z"/>
		</g>
		<rect id="XMLID_34_" x="1737" y="381" class="st11" width="67.5" height="54.3"/>
		<path id="XMLID_33_" class="st9" d="M1720.8,423.8c3,4.4,22.2,7.4,33.9-2.6c11.7-10-17.6-7.9-17.6-7.9v-2.6
			C1737,410.7,1711.8,410.6,1720.8,423.8z"/>
		<path id="XMLID_32_" class="st9" d="M1820.8,423.8c-3,4.4-22.2,7.4-33.9-2.6c-11.7-10,17.6-7.9,17.6-7.9v-2.6
			C1804.6,410.7,1829.7,410.6,1820.8,423.8z"/>
	</g>
	<g id="XMLID_11_" class="st12">
		<path id="XMLID_30_" class="st4" d="M1747.8,362.7L1747.8,362.7H1730c-8.5,0-15.4,4.9-15.4,10.9c0,0-4.7,16.8-9.4,21.1
			c-4.7,4.3-6.5,30.6,4.7,35.9c8.1,3.8,19.6,3.8,27.1,0.8V431c-1.9,0.6-4.1,0.9-6.4,0.9c-8.4,0-15.1-4.5-15.1-10
			c0-3.6,2.9-6.8,7.2-8.5c5.3-2.8,14.3-2.7,14.3-2.7v2.2l0,0V381h33.5v-10.1C1755.6,370.8,1747.8,362.7,1747.8,362.7z"/>
		<path id="XMLID_29_" class="st1" d="M1720.8,423.8c-3.6-5.3-1.6-8.5,2-10.4c-4.3,1.8-7.2,4.9-7.2,8.5c0,5.5,6.8,10,15.1,10
			c2.3,0,4.4-0.3,6.4-0.9v-3.2C1729.3,428.3,1722.4,426.3,1720.8,423.8z"/>
		<rect id="XMLID_28_" x="1737" y="412.9" class="st1" width="0" height="0.4"/>
		<path id="XMLID_27_" class="st4" d="M1726.9,269.7l14.1,17.8c7-3,16.5-5,29.4-5v-2c-6.6-0.1-11.8-3.9-11.8-8.5s5.3-8.4,11.8-8.5
			v-3C1744.8,260.5,1726.9,269.7,1726.9,269.7z"/>
		<path id="XMLID_26_" class="st5" d="M1758.7,272c0,4.6,5.3,8.4,11.8,8.5v-2.6h-2v-4.3h-6.1v-3.2h6.1v-4.3h2v-2.6
			C1764,263.6,1758.7,267.3,1758.7,272z"/>
		<polygon id="XMLID_25_" class="st6" points="1768.5,270.4 1762.4,270.4 1762.4,273.6 1768.5,273.6 1768.5,277.9 1770.5,277.9 
			1770.5,266.1 1768.5,266.1 		"/>
		<path id="XMLID_24_" class="st7" d="M1737.1,343.5c0.6,7.2,5.7,13.5,13.4,17.6c2.3-1.8,5.3-4.9,5.8-9.7
			C1749,349.8,1742.5,347,1737.1,343.5z"/>
		<path id="XMLID_23_" class="st8" d="M1750.5,361c-1.4,1.1-2.6,1.6-2.7,1.7l0,0c0,0,7.8,8.1,22.7,8.2v-5.1v-3.1v-9.8
			c-4.9,0-9.7-0.6-14.2-1.5C1755.8,356.1,1752.8,359.3,1750.5,361z"/>
		<path id="XMLID_20_" class="st9" d="M1721.8,315.2c-0.1,1-0.2,2-0.2,3c0,10,6,19,15.5,25.3c5.4,3.6,11.9,6.3,19.2,7.9
			c4.5,1,9.3,1.5,14.2,1.5v-7.1v-3.4c-6-0.1-12.8-3.1-12.8-6.9c0-0.5,0.6-1,1.4-1s1.4,0.4,1.4,1c0,2.6,5.5,4.8,10,4.9v-22.2v-16.1
			C1768.4,303.8,1753.1,315.1,1721.8,315.2z M1750.1,323.4c-1.7,0-3.1-0.7-3.8-1.7c-0.3,0-0.6,0-0.9,0c-2.9,0-4.9-0.9-5-0.9
			c-0.3-0.1-0.4-0.4-0.2-0.7c0.2-0.2,0.6-0.3,1-0.2c0.1,0,2.1,0.8,4.8,0.7v-0.1c-3.1-0.8-4.5-2.7-4.6-2.7c-0.2-0.2-0.1-0.5,0.3-0.7
			c0.3-0.1,0.8,0,0.9,0.2c0.1,0.1,1.2,1.5,3.5,2.2c0.1-0.3,0.3-0.6,0.5-0.8c-1.6-1.4-2.2-3.2-2.2-3.3c-0.1-0.3,0.1-0.5,0.5-0.6
			s0.8,0.1,0.8,0.4c0,0,0.6,1.6,1.8,2.8c0.7-0.4,1.6-0.6,2.5-0.6c2.3,0,4.2,1.3,4.2,3C1754.3,322.1,1752.4,323.4,1750.1,323.4z"/>
		<path id="XMLID_19_" class="st7" d="M1721.6,315.2c0.1,0,0.1,0,0.2,0c31.3,0,46.7-11.4,48.8-13.1v-12.2v-6.5v-0.9
			c-12.9,0-22.4,2-29.4,5C1719.6,296.6,1721.6,315.2,1721.6,315.2z"/>
		<path id="XMLID_18_" class="st10" d="M1750.1,317.5c-1,0-1.8,0.2-2.5,0.6c-1.3-1.2-1.8-2.8-1.8-2.8c-0.1-0.3-0.5-0.4-0.8-0.4
			c-0.4,0.1-0.6,0.3-0.5,0.6c0,0.1,0.7,1.9,2.2,3.3c-0.2,0.2-0.4,0.5-0.5,0.8c-2.3-0.7-3.4-2.1-3.5-2.2c-0.2-0.2-0.6-0.3-0.9-0.2
			c-0.3,0.1-0.5,0.4-0.3,0.7c0,0,1.5,1.9,4.6,2.7c0,0.1,0,0.1,0,0.1c-2.7,0.1-4.7-0.7-4.8-0.7c-0.3-0.1-0.8-0.1-1,0.2
			c-0.2,0.2-0.1,0.5,0.2,0.7c0.1,0.1,2.1,0.9,5,0.9c0.3,0,0.6,0,0.9,0c0.7,1,2.1,1.7,3.8,1.7c2.3,0,4.2-1.3,4.2-3
			C1754.3,318.8,1752.4,317.5,1750.1,317.5z"/>
		<path id="XMLID_14_" class="st7" d="M1760.5,335.5c0-0.5-0.6-1-1.4-1s-1.4,0.4-1.4,1c0,3.8,6.8,6.8,12.8,6.9v-2
			C1766,340.3,1760.5,338,1760.5,335.5z"/>
		<path id="XMLID_13_" class="st11" d="M1737,412.9v0.4c0,0,29.4-2.1,17.6,7.9c-5.1,4.4-11.6,6.2-17.6,6.6v3.2v0.3v4h33.5v-8.8V381
			H1737V412.9z"/>
		<path id="XMLID_12_" class="st9" d="M1720.8,423.8c1.7,2.5,8.5,4.5,16.3,4c6-0.4,12.5-2.3,17.6-6.6c11.7-10-17.6-7.9-17.6-7.9l0,0
			v-0.4v-2.2c0,0-8.9,0-14.3,2.7C1719.1,415.3,1717.2,418.5,1720.8,423.8z"/>
	</g>
</g>
<g id="XMLID_96_">
	<g id="XMLID_244_">
		<g id="XMLID_258_">
			<path id="XMLID_259_" class="st11" d="M1053.8,269.1c-0.2,2.1-2,3.8-4,3.8c-39.7,0-79.4,0-119,0c-2,0-3.8-1.7-4-3.8
				c-3-28.3-3-56.5,0-84.8c0.2-2.1,2-3.8,4-3.8c39.7,0,79.4,0,119,0c2,0,3.8,1.7,4,3.8C1056.8,212.5,1056.8,240.8,1053.8,269.1z"/>
		</g>
		<g id="XMLID_256_">
			<path id="XMLID_257_" class="st13" d="M1037.7,255.2c0,2.1-1.7,3.8-3.9,3.8c-29.1,0-58.2,0-87.2,0c-2.1,0-3.9-1.7-3.9-3.8
				c0.3-19,1.9-38.1,4.9-57.1c0.3-2.1,2.2-3.8,4-3.8c25.7,0,51.4,0,77.1,0c1.9,0,3.7,1.7,4,3.8
				C1035.8,217.1,1037.5,236.2,1037.7,255.2z"/>
		</g>
		<path id="XMLID_255_" class="st14" d="M988.5,214c1.2,0,2.3,0,3.5,0c0-5.6,0.1-11.1,0.1-16.7c-1.2,0-2.5,0-3.7,0
			C988.4,202.8,988.5,208.4,988.5,214z"/>
		<path id="XMLID_254_" class="st14" d="M1020.5,225.7c0.2-1.5,0.4-2.9,0.5-4.4c4.3-0.1,8.6-0.1,12.9-0.2c-0.3,1.5-0.5,2.9-0.8,4.4
			C1029,225.6,1024.7,225.6,1020.5,225.7z"/>
		<path id="XMLID_253_" class="st14" d="M987.9,239.3c1,0,2.1,0,3.1,0c0,5.6,0,11.1-0.1,16.7c-1,0-1.9,0-2.9,0
			C988,250.5,987.9,244.9,987.9,239.3z"/>
		<path id="XMLID_252_" class="st14" d="M945.8,227c-0.3-1.5-0.6-2.9-0.9-4.4c4.3-0.1,8.5-0.1,12.8-0.2c0.2,1.5,0.4,2.9,0.6,4.4
			C954.2,226.9,950,226.9,945.8,227z"/>
		<path id="XMLID_251_" class="st14" d="M992.9,225.4c0,2.3-1.4,4.2-3,4.2c-1.6,0-3-1.9-3-4.2s1.3-4.2,3-4.2
			C991.6,221.2,993,223,992.9,225.4z"/>
		<g id="XMLID_248_">
			<g id="XMLID_249_">
				<path id="XMLID_250_" class="st14" d="M990.5,224.3c-6.2-3.8-12.7-7.6-19.5-11.4c-1.6-0.9-2.7,1.3-1.2,2.2
					c6.8,3.8,13.2,7.6,19.4,11.4C990.7,227.4,992,225.1,990.5,224.3L990.5,224.3z"/>
			</g>
		</g>
		<g id="XMLID_245_">
			<g id="XMLID_246_">
				<path id="XMLID_247_" class="st14" d="M990.4,226c8.1-7.7,17-15.4,26.6-23.1c1-0.8-0.3-2-1.2-1.2c-9.7,7.7-18.6,15.4-26.6,23.1
					C988.4,225.5,989.7,226.7,990.4,226L990.4,226z"/>
			</g>
		</g>
	</g>
</g>
<g id="XMLID_15_">
	<g id="XMLID_72_">
		<path id="XMLID_77_" class="st15" d="M1405.1,364.7c17.7-3.2,26.6,28.7,22.2,38.3"/>
		<path id="XMLID_75_" class="st15" d="M1459.4,356.3c-23.3,3.3-26.6,37.1-22.2,46.7"/>
		<path id="XMLID_73_" class="st15" d="M1446.5,345.9c-12.5,7.5-18.1,44.9-15.5,53"/>
	</g>
	<g id="XMLID_51_">
		<path id="XMLID_66_" class="st16" d="M1405.4,356.1c7,3.7,10.8,8.4,8.6,10.4c-2.2,2-9.7,0.7-16.7-3.1c-7-3.7-10.8-8.4-8.6-10.4
			C1391,351,1398.4,352.4,1405.4,356.1z"/>
		<path id="XMLID_53_" class="st16" d="M1401.3,358.2c3.2,5.7,8.6,9.5,12,8.6s3.6-6.3,0.3-12c-3.2-5.7-8.6-9.5-12-8.6
			C1398.3,347.2,1398.1,352.5,1401.3,358.2z"/>
		<path id="XMLID_52_" class="st17" d="M1407.6,356.4c5.2,4.8,7.6,9.6,5.3,10.9c-2.3,1.2-8.4-1.7-13.6-6.5
			c-5.2-4.8-7.6-9.6-5.3-10.9C1396.4,348.8,1402.4,351.7,1407.6,356.4z"/>
	</g>
	<g id="XMLID_54_">
		<path id="XMLID_57_" class="st16" d="M1469.6,351.9c-4.9,5.1-11.3,8-14.4,6.6c-3-1.4-1.5-6.7,3.4-11.8s11.3-8,14.4-6.6
			C1476,341.5,1474.5,346.8,1469.6,351.9z"/>
		<path id="XMLID_50_" class="st16" d="M1466.3,349.2c-8,2.6-13.2,6.5-11.6,8.9c1.6,2.4,9.3,2.1,17.2-0.5c8-2.6,13.2-6.5,11.6-8.9
			C1481.9,346.4,1474.2,346.6,1466.3,349.2z"/>
		<path id="XMLID_17_" class="st17" d="M1469.2,353.4c-6.6,3.9-13.4,5.8-15.3,4.3c-1.9-1.5,1.9-5.9,8.5-9.8
			c6.6-3.9,13.4-5.8,15.3-4.3C1479.6,345.1,1475.7,349.5,1469.2,353.4z"/>
	</g>
	<g id="XMLID_60_">
		<g id="XMLID_16_">
			<path id="XMLID_101_" class="st18" d="M1440.5,340.9c11.5-13.2,17,14.5,0.8,3.9c16.2,10.5-16.1,13.6-4.6,0.4
				c-11.5,13.2-17-14.5-0.8-3.9C1419.7,330.8,1452,327.7,1440.5,340.9z"/>
		</g>
		<path id="XMLID_59_" class="st17" d="M1438,339.9c2.3-0.2,4.4,1.1,4.7,2.9c0.3,1.8-1.2,3.4-3.5,3.6c-2.3,0.2-4.4-1.1-4.7-2.9
			C1434.2,341.7,1435.7,340.1,1438,339.9z"/>
	</g>
	<g id="XMLID_68_">
		<path id="XMLID_100_" class="st19" d="M1444.8,437.3c-8.7,0-17.4,0-26.1,0c-7.3-15.1,11.6-30.1,6-45.2c4.7,0,9.4,0,14.1,0
			C1433.2,407.2,1452.1,422.2,1444.8,437.3z"/>
	</g>
</g>
<g id="XMLID_105_">
	<g id="XMLID_58_">
		<path id="XMLID_124_" class="st9" d="M892.9,563.9c1.1,14-10.1,25.5-24.9,25.5c-47.5,0-94.9,0-142.4,0
			c-14.8,0-25.9-11.5-24.9-25.5c1.8-24.9,3.7-49.7,5.5-74.6c1.1-14,12.8-25.5,26.1-25.5c42.9,0,85.9,0,128.8,0
			c13.3,0,25,11.5,26.1,25.5C889.2,514.1,891,539,892.9,563.9z"/>
	</g>
	<g id="XMLID_67_">
		<path id="XMLID_120_" class="st9" d="M1072.4,564.3c1,13.8-10,25-24.5,25c-45.5,0-90.9,0-136.4,0c-14.5,0-25.5-11.3-24.5-25
			c1.8-25.2,3.6-50.4,5.4-75.5c1-13.8,12.5-25,25.6-25c41.1,0,82.2,0,123.4,0c13,0,24.5,11.3,25.6,25
			C1068.8,514,1070.6,539.1,1072.4,564.3z"/>
	</g>
	<g id="XMLID_69_">
		<path id="XMLID_109_" class="st9" d="M1069.7,589.3c-60,0-119.9,0-179.9,0c0-5.8,0-11.7,0-17.5c56.5-28.8,123.4-28.8,179.9,0
			C1069.7,577.6,1069.7,583.5,1069.7,589.3z"/>
		<path id="XMLID_108_" class="st20" d="M1069.7,589.3c-60,0-119.9,0-179.9,0c0-5.8,0-11.7,0-17.5c56.5-28.8,123.4-28.8,179.9,0
			C1069.7,577.6,1069.7,583.5,1069.7,589.3z"/>
	</g>
	<g id="XMLID_70_">
		<path id="XMLID_104_" class="st9" d="M890.1,589.2c-62.2,0-124.4,0-186.6,0c0-5.3,0-10.5,0-15.8c58.6-29.9,128-29.9,186.6,0
			C890.1,578.7,890.1,584,890.1,589.2z"/>
		<path id="XMLID_103_" class="st21" d="M890.1,589.2c-62.2,0-124.4,0-186.6,0c0-5.3,0-10.5,0-15.8c58.6-29.9,128-29.9,186.6,0
			C890.1,578.7,890.1,584,890.1,589.2z"/>
	</g>
	<line id="XMLID_71_" class="st22" x1="890.1" y1="513.2" x2="890.1" y2="589.2"/>
	<path id="XMLID_92_" class="st11" d="M1074.9,641.3c-9.5-38.7-5.9-80.7,10.2-115.6c4.4,2.8,8.7,5.6,13.1,8.4
		c-11.9,35.2-9.7,75.1,5.6,107.2H1074.9z"/>
	<path id="XMLID_79_" class="st11" d="M701.5,638.8c9.5-39.6,5.9-82.4-10.2-118.1c-4.4,2.9-8.7,5.7-13.1,8.6
		c11.9,36,9.7,76.7-5.6,109.5H701.5z"/>
	<rect id="XMLID_78_" x="701.4" y="588.7" class="st11" width="368.2" height="9.8"/>
</g>
<g id="XMLID_8_">
	<g id="XMLID_110_">
		<g id="XMLID_122_">
			<path id="XMLID_95_" class="st23" d="M588.6,588.2c7.4,16.7-1.4,30.2-1.8,30.2c0.5,0-10.1-13.5-17.5-30.2
				c-7.4-16.7,1.7-29.5,2.1-29.5C570.9,558.7,581.3,571.5,588.6,588.2z"/>
		</g>
		<path id="XMLID_114_" class="st23" d="M600.4,588.2c0,20.2-9.7,36.5-9.7,36.5s-9.7-16.3-9.7-36.5s9.7-36.5,9.7-36.5
			S600.4,568,600.4,588.2z"/>
		<g id="XMLID_111_">
			<path id="XMLID_97_" class="st23" d="M612,588c-7.3,16.7-17.9,30.2-17.4,30.2c-0.4,0-9.3-13.5-1.9-30.2
				c7.3-16.7,17.9-30.2,17.4-30.2C610.5,557.8,619.3,571.3,612,588z"/>
		</g>
	</g>
	<g id="XMLID_99_">
		<path id="XMLID_98_" class="st11" d="M601.6,620.8c-7.3,0-14.5,0-21.8,0c-11-9.7-17.7-22.9-14.5-32.6c17,0,33.9,0,50.9,0
			C619.3,597.9,612.5,611.1,601.6,620.8z"/>
	</g>
</g>
<g>
	<g id="XMLID_21_">
		
			<linearGradient id="XMLID_4_" gradientUnits="userSpaceOnUse" x1="1398.7618" y1="255.1916" x2="1419.6777" y2="255.1916" gradientTransform="matrix(1 0 0 -1 0 802)">
			<stop  offset="0" style="stop-color:#FFFFFF"/>
			<stop  offset="0" style="stop-color:#EF888E"/>
			<stop  offset="0.7398" style="stop-color:#EF3741"/>
		</linearGradient>
		<path id="XMLID_83_" class="st24" d="M1418.6,530c-4,1.9-7.1,4.5-8,8.4c-0.4,1.7,0.1,2.9,1.5,4c1.8,1.3,3.6,2.5,5.4,3.8
			c1.8,1.3,2.4,2.9,2,4.9c-1,4.8-4,8.6-7.4,12.2c-1,1-2.9,0.4-3.2-1.1c-0.2-1-0.2-1.9-0.2-3c0-3.7,0-3.7-4.4-3.7
			c-5.1,0-5.6-0.4-5.6-4.8c0-3,0-5.9,0-8.9c0-1.9,1.2-3,3.5-3c1.6-0.1,3.3-0.1,5,0c1.1,0.1,1.5-0.4,1.5-1.3c-0.1-1.4,0-2.7,0-4.2
			c0.1-2.2,1.1-3.1,3.6-3.3c0.1,0,0.2,0,0.3,0C1414.6,530,1416.5,530,1418.6,530z"/>
		
			<linearGradient id="XMLID_5_" gradientUnits="userSpaceOnUse" x1="1414.1847" y1="255.2623" x2="1437.2627" y2="255.2623" gradientTransform="matrix(1 0 0 -1 0 802)">
			<stop  offset="0" style="stop-color:#FFFFFF"/>
			<stop  offset="0" style="stop-color:#00A8BB"/>
			<stop  offset="0.3225" style="stop-color:#02A8BB"/>
			<stop  offset="0.4386" style="stop-color:#09A9BB"/>
			<stop  offset="0.5215" style="stop-color:#14AABB"/>
			<stop  offset="0.5884" style="stop-color:#25ACBB"/>
			<stop  offset="0.6451" style="stop-color:#3BAFBB"/>
			<stop  offset="0.6786" style="stop-color:#4CB1BB"/>
		</linearGradient>
		<path id="XMLID_82_" class="st25" d="M1422.9,563.8c0.9-2.1,1.8-4.2,2.4-6.3c1-2.9,1.4-5.8,0.6-8.8c-1-3.4-3.3-5.7-7-7.3
			c-1.1-0.4-2.1-0.8-3.1-1.4c-1.8-1-2.2-2.5-1.5-4.2c1.5-3.2,4.4-5.1,8.1-6c2.7-0.6,4.8,0.8,4.6,3.2c-0.1,1.3,0.1,2.5-0.1,3.9
			c-0.1,1.1,0.3,1.6,1.7,1.6c1.6-0.1,3.3-0.1,5,0c2.1,0.1,3.3,1,3.3,2.8c0.1,3.8,0.1,7.5,0,11.3c0,1.8-1.3,2.8-3.5,2.9
			c-1.6,0.1-3.1,0.1-4.7-0.1c-1.6-0.1-1.9,0.5-1.9,1.7c0.1,1.3,0.1,2.5,0,3.7C1427.2,563.2,1425.8,564.2,1422.9,563.8z"/>
	</g>
	<text transform="matrix(0.9226 0 0 1 1453.4658 576.7979)" class="st26 st27 st28">e</text>
	<text transform="matrix(0.9226 0 0 1 1486.126 576.7979)" class="st29 st27 st28">Med Technology</text>
</g>
</svg>
