<?xml version="1.0" encoding="utf-8"?>
<!-- Generator: Adobe Illustrator 19.0.0, SVG Export Plug-In . SVG Version: 6.00 Build 0)  -->
<svg version="1.1" id="Layer_1" xmlns="http://www.w3.org/2000/svg" xmlns:xlink="http://www.w3.org/1999/xlink" x="0px" y="0px"
	 viewBox="-44 171 521.4 451" style="enable-background:new -44 171 521.4 451;" xml:space="preserve">
<style type="text/css">
	.st0{fill:#EBEBEB;}
	.st1{fill:#6E6F72;}
	.st2{fill:#231F20;}
	.st3{fill:#564644;}
	.st4{fill:#EF3741;}
	.st5{opacity:0.45;}
	.st6{fill:none;stroke:#005BAA;stroke-width:0.8666;stroke-linecap:round;stroke-miterlimit:10;}
	.st7{fill:none;stroke:#005BAA;stroke-width:0.4333;stroke-linecap:round;stroke-miterlimit:10;}
	.st8{fill:none;stroke:#FFFFFF;stroke-width:2;stroke-miterlimit:10;}
	.st9{opacity:5.000000e-002;fill:#F3F3F3;enable-background:new    ;}
</style>
<g id="XMLID_475_">
	<g id="XMLID_145_">
		<g id="XMLID_292_">
			<path id="XMLID_296_" class="st0" d="M472.4,590.3c0,14.6-10.2,26.3-22.8,26.3H-15.7c-12.6,0-22.8-11.8-22.8-26.3V202.5
				c0-14.6,10.2-26.3,22.8-26.3h465.3c12.6,0,22.8,11.8,22.8,26.3L472.4,590.3L472.4,590.3z"/>
			<path id="XMLID_293_" class="st1" d="M449.6,619H-15.7c-13.7,0-24.8-12.9-24.8-28.7V202.5c0-15.8,11.1-28.7,24.8-28.7h465.3
				c13.7,0,24.8,12.9,24.8,28.7v387.8C474.4,606.1,463.2,619,449.6,619z M-15.7,178.3c-11.5,0-20.8,10.8-20.8,24v387.8
				c0,13.3,9.3,24,20.8,24h465.3c11.5,0,20.8-10.8,20.8-24V202.4c0-13.3-9.3-24-20.8-24C449.6,178.3-15.7,178.3-15.7,178.3z"/>
		</g>
		<rect id="XMLID_281_" x="-38.5" y="551" class="st2" width="510.9" height="5.6"/>
		<ellipse id="XMLID_280_" class="st3" cx="377" cy="586.2" rx="17.1" ry="15.9"/>
		<path id="XMLID_278_" class="st4" d="M77.6,588.1c0,5.2-3.6,9.4-8.1,9.4h-35c-4.5,0-8.1-4.3-8.1-9.4l0,0c0-5.2,3.6-9.4,8.1-9.4h35
			C74,578.6,77.6,582.9,77.6,588.1L77.6,588.1z"/>
		<path id="XMLID_276_" class="st3" d="M151.8,588.1c0,5.2-3.6,9.4-8.1,9.4h-35c-4.5,0-8.1-4.3-8.1-9.4l0,0c0-5.2,3.6-9.4,8.1-9.4
			h35C148.1,578.6,151.8,582.9,151.8,588.1L151.8,588.1z"/>
		<path id="XMLID_274_" class="st3" d="M225.9,588.1c0,5.2-3.6,9.4-8.1,9.4h-35c-4.5,0-8.1-4.3-8.1-9.4l0,0c0-5.2,3.6-9.4,8.1-9.4
			h35C222.3,578.6,225.9,582.9,225.9,588.1L225.9,588.1z"/>
		<path id="XMLID_272_" class="st3" d="M300.1,588.1c0,5.2-3.6,9.4-8.1,9.4h-35c-4.5,0-8.1-4.3-8.1-9.4l0,0c0-5.2,3.6-9.4,8.1-9.4
			h35C296.4,578.6,300.1,582.9,300.1,588.1L300.1,588.1z"/>
	</g>
	<rect id="XMLID_473_" x="-30.7" y="196.6" width="494.9" height="343.6"/>
	<g id="XMLID_772_" class="st5">
		<line id="XMLID_472_" class="st6" x1="462.6" y1="200.6" x2="462.6" y2="535.2"/>
		<line id="XMLID_471_" class="st6" x1="-26.5" y1="535.2" x2="-26.5" y2="200.6"/>
		<line id="XMLID_470_" class="st7" x1="-15.4" y1="535.2" x2="-15.4" y2="200.6"/>
		<line id="XMLID_469_" class="st7" x1="-4.3" y1="535.2" x2="-4.3" y2="200.6"/>
		<line id="XMLID_468_" class="st7" x1="6.9" y1="535.2" x2="6.9" y2="200.6"/>
		<line id="XMLID_467_" class="st7" x1="18" y1="535.2" x2="18" y2="200.6"/>
		<line id="XMLID_466_" class="st7" x1="29.1" y1="535.2" x2="29.1" y2="200.6"/>
		<line id="XMLID_465_" class="st7" x1="40.2" y1="535.2" x2="40.2" y2="200.6"/>
		<line id="XMLID_464_" class="st7" x1="51.3" y1="535.2" x2="51.3" y2="200.6"/>
		<line id="XMLID_463_" class="st7" x1="62.4" y1="535.2" x2="62.4" y2="200.6"/>
		<line id="XMLID_462_" class="st7" x1="73.6" y1="535.2" x2="73.6" y2="200.6"/>
		<line id="XMLID_461_" class="st7" x1="84.7" y1="535.2" x2="84.7" y2="200.6"/>
		<line id="XMLID_460_" class="st7" x1="95.8" y1="535.2" x2="95.8" y2="200.6"/>
		<line id="XMLID_459_" class="st7" x1="106.9" y1="535.2" x2="106.9" y2="200.6"/>
		<line id="XMLID_458_" class="st7" x1="118" y1="535.2" x2="118" y2="200.6"/>
		<line id="XMLID_457_" class="st7" x1="129.1" y1="535.2" x2="129.1" y2="200.6"/>
		<line id="XMLID_456_" class="st7" x1="140.3" y1="535.2" x2="140.3" y2="200.6"/>
		<line id="XMLID_455_" class="st7" x1="151.4" y1="535.2" x2="151.4" y2="200.6"/>
		<line id="XMLID_454_" class="st7" x1="162.5" y1="535.2" x2="162.5" y2="200.6"/>
		<line id="XMLID_453_" class="st7" x1="173.6" y1="535.2" x2="173.6" y2="200.6"/>
		<line id="XMLID_452_" class="st7" x1="184.7" y1="535.2" x2="184.7" y2="200.6"/>
		<line id="XMLID_451_" class="st7" x1="195.8" y1="535.2" x2="195.8" y2="200.6"/>
		<line id="XMLID_450_" class="st7" x1="207" y1="535.2" x2="207" y2="200.6"/>
		<line id="XMLID_449_" class="st7" x1="218.1" y1="535.2" x2="218.1" y2="200.6"/>
		<line id="XMLID_448_" class="st7" x1="229.2" y1="535.2" x2="229.2" y2="200.6"/>
		<line id="XMLID_447_" class="st7" x1="240.3" y1="535.2" x2="240.3" y2="200.6"/>
		<line id="XMLID_446_" class="st7" x1="251.4" y1="535.2" x2="251.4" y2="200.6"/>
		<line id="XMLID_445_" class="st7" x1="262.5" y1="535.2" x2="262.5" y2="200.6"/>
		<line id="XMLID_444_" class="st7" x1="273.6" y1="535.2" x2="273.6" y2="200.6"/>
		<line id="XMLID_443_" class="st7" x1="284.8" y1="535.2" x2="284.8" y2="200.6"/>
		<line id="XMLID_442_" class="st7" x1="295.9" y1="535.2" x2="295.9" y2="200.6"/>
		<line id="XMLID_441_" class="st7" x1="307" y1="535.2" x2="307" y2="200.6"/>
		<line id="XMLID_440_" class="st7" x1="318.1" y1="535.2" x2="318.1" y2="200.6"/>
		<line id="XMLID_439_" class="st7" x1="329.2" y1="535.2" x2="329.2" y2="200.6"/>
		<line id="XMLID_438_" class="st7" x1="340.3" y1="535.2" x2="340.3" y2="200.6"/>
		<line id="XMLID_437_" class="st7" x1="351.5" y1="535.2" x2="351.5" y2="200.6"/>
		<line id="XMLID_436_" class="st7" x1="362.6" y1="535.2" x2="362.6" y2="200.6"/>
		<line id="XMLID_435_" class="st7" x1="373.7" y1="535.2" x2="373.7" y2="200.6"/>
		<line id="XMLID_434_" class="st7" x1="384.8" y1="535.2" x2="384.8" y2="200.6"/>
		<line id="XMLID_433_" class="st7" x1="395.9" y1="535.2" x2="395.9" y2="200.6"/>
		<line id="XMLID_432_" class="st7" x1="407" y1="535.2" x2="407" y2="200.6"/>
		<line id="XMLID_431_" class="st7" x1="418.2" y1="535.2" x2="418.2" y2="200.6"/>
		<line id="XMLID_430_" class="st7" x1="429.3" y1="535.2" x2="429.3" y2="200.6"/>
		<line id="XMLID_429_" class="st7" x1="440.4" y1="535.2" x2="440.4" y2="200.6"/>
		<line id="XMLID_428_" class="st7" x1="451.5" y1="535.2" x2="451.5" y2="200.6"/>
		<g id="XMLID_773_">
			<line id="XMLID_427_" class="st6" x1="462.3" y1="535.5" x2="-26.2" y2="535.5"/>
			<line id="XMLID_426_" class="st6" x1="-26.2" y1="200.5" x2="462.3" y2="200.5"/>
			<line id="XMLID_425_" class="st7" x1="-26.2" y1="208.1" x2="462.3" y2="208.1"/>
			<line id="XMLID_424_" class="st7" x1="-26.2" y1="215.6" x2="462.3" y2="215.6"/>
			<line id="XMLID_423_" class="st7" x1="-26.2" y1="223.3" x2="462.3" y2="223.3"/>
			<line id="XMLID_422_" class="st7" x1="-26.2" y1="230.9" x2="462.3" y2="230.9"/>
			<line id="XMLID_421_" class="st7" x1="-26.2" y1="238.5" x2="462.3" y2="238.5"/>
			<line id="XMLID_420_" class="st7" x1="-26.2" y1="246.2" x2="462.3" y2="246.2"/>
			<line id="XMLID_419_" class="st7" x1="-26.2" y1="253.8" x2="462.3" y2="253.8"/>
			<line id="XMLID_418_" class="st7" x1="-26.2" y1="261.3" x2="462.3" y2="261.3"/>
			<line id="XMLID_417_" class="st7" x1="-26.2" y1="269" x2="462.3" y2="269"/>
			<line id="XMLID_416_" class="st7" x1="-26.2" y1="276.6" x2="462.3" y2="276.6"/>
			<line id="XMLID_415_" class="st7" x1="-26.2" y1="284.2" x2="462.3" y2="284.2"/>
			<line id="XMLID_414_" class="st7" x1="-26.2" y1="291.9" x2="462.3" y2="291.9"/>
			<line id="XMLID_413_" class="st7" x1="-26.2" y1="299.4" x2="462.3" y2="299.4"/>
			<line id="XMLID_412_" class="st7" x1="-26.2" y1="307" x2="462.3" y2="307"/>
			<line id="XMLID_411_" class="st7" x1="-26.2" y1="314.7" x2="462.3" y2="314.7"/>
			<line id="XMLID_410_" class="st7" x1="-26.2" y1="322.3" x2="462.3" y2="322.3"/>
			<line id="XMLID_409_" class="st7" x1="-26.2" y1="329.9" x2="462.3" y2="329.9"/>
			<line id="XMLID_408_" class="st7" x1="-26.2" y1="337.4" x2="462.3" y2="337.4"/>
			<line id="XMLID_407_" class="st7" x1="-26.2" y1="345.1" x2="462.3" y2="345.1"/>
			<line id="XMLID_406_" class="st7" x1="-26.2" y1="352.7" x2="462.3" y2="352.7"/>
			<line id="XMLID_405_" class="st7" x1="-26.2" y1="360.3" x2="462.3" y2="360.3"/>
			<line id="XMLID_404_" class="st7" x1="-26.2" y1="368" x2="462.3" y2="368"/>
			<line id="XMLID_403_" class="st7" x1="-26.2" y1="375.5" x2="462.3" y2="375.5"/>
			<line id="XMLID_402_" class="st7" x1="-26.2" y1="383.1" x2="462.3" y2="383.1"/>
			<line id="XMLID_401_" class="st7" x1="-26.2" y1="390.8" x2="462.3" y2="390.8"/>
			<line id="XMLID_400_" class="st7" x1="-26.2" y1="398.4" x2="462.3" y2="398.4"/>
			<line id="XMLID_399_" class="st7" x1="-26.2" y1="406" x2="462.3" y2="406"/>
			<line id="XMLID_398_" class="st7" x1="-26.2" y1="413.7" x2="462.3" y2="413.7"/>
			<line id="XMLID_397_" class="st7" x1="-26.2" y1="421.2" x2="462.3" y2="421.2"/>
			<line id="XMLID_396_" class="st7" x1="-26.2" y1="428.8" x2="462.3" y2="428.8"/>
			<line id="XMLID_395_" class="st7" x1="-26.2" y1="436.5" x2="462.3" y2="436.5"/>
			<line id="XMLID_394_" class="st7" x1="-26.2" y1="444.1" x2="462.3" y2="444.1"/>
			<line id="XMLID_393_" class="st7" x1="-26.2" y1="451.7" x2="462.3" y2="451.7"/>
			<line id="XMLID_392_" class="st7" x1="-26.2" y1="459.2" x2="462.3" y2="459.2"/>
			<line id="XMLID_391_" class="st7" x1="-26.2" y1="466.9" x2="462.3" y2="466.9"/>
			<line id="XMLID_390_" class="st7" x1="-26.2" y1="474.5" x2="462.3" y2="474.5"/>
			<line id="XMLID_389_" class="st7" x1="-26.2" y1="482.1" x2="462.3" y2="482.1"/>
			<line id="XMLID_388_" class="st7" x1="-26.2" y1="489.8" x2="462.3" y2="489.8"/>
			<line id="XMLID_387_" class="st7" x1="-26.2" y1="497.3" x2="462.3" y2="497.3"/>
			<line id="XMLID_386_" class="st7" x1="-26.2" y1="504.9" x2="462.3" y2="504.9"/>
			<line id="XMLID_385_" class="st7" x1="-26.2" y1="512.6" x2="462.3" y2="512.6"/>
			<line id="XMLID_384_" class="st7" x1="-26.2" y1="520.2" x2="462.3" y2="520.2"/>
			<line id="XMLID_383_" class="st7" x1="-26.2" y1="527.8" x2="462.3" y2="527.8"/>
		</g>
	</g>
	<path id="XMLID_257_" class="st8" d="M-26.3,311.6c15,0,29,0,33.7,0c4.8,0,6.4-8.6,11.2-8.6s7.1,8.6,12.5,8.6s6.5,0,9.7,0
		c3.1,0,4.7,10.8,7,10.8s9.1-51.7,12.8-51.7c2.8,0,6.5,58.6,9.4,58.6s4.4-17.5,7.5-17.5c4.9,0,4.9,0,9.3,0c4.1,0,12.8-9.7,19.1-9.7
		s12.5,9.6,18.4,9.6c5.9,0,53,0,57.8,0s6.4-8.6,11.2-8.6s7.1,8.6,12.5,8.6s6.5,0,9.7,0c3.1,0,4.7,10.8,7,10.8s9.1-51.7,12.8-51.7
		c2.8,0,6.5,58.6,9.4,58.6s4.4-17.5,7.5-17.5c4.9,0,4.9,0,9.3,0c4.1,0,12.8-9.7,19.1-9.7c6.3,0,12.5,9.6,18.4,9.6s52.3,0,57.1,0
		c4.8,0,6.4-8.6,11.2-8.6c4.8,0,7.1,8.6,12.5,8.6s6.5,0,9.7,0c3.1,0,4.7,10.8,7,10.8s9.1-51.7,12.8-51.7c2.8,0,6.5,58.6,9.4,58.6
		s4.4-17.5,7.5-17.5c4.9,0,4.9,0,9.3,0c4.1,0,11.5-9.7,17.8-9.7"/>
	<path id="XMLID_256_" class="st8" d="M-24.8,429.9c15,0,29,0,33.7,0c4.8,0,6.4-8.6,11.2-8.6s7.1,8.6,12.5,8.6s6.5,0,9.7,0
		c3.1,0,4.7,10.8,7,10.8S58.4,389,62.1,389c2.8,0,6.5,58.6,9.4,58.6s4.4-17.5,7.5-17.5c4.9,0,4.9,0,9.3,0c4.1,0,12.8-9.7,19.1-9.7
		s12.5,9.6,18.4,9.6c5.9,0,53,0,57.8,0s6.4-8.6,11.2-8.6s7.1,8.6,12.5,8.6s6.5,0,9.7,0c3.1,0,4.7,10.8,7,10.8s9.1-51.7,12.8-51.7
		c2.8,0,6.5,58.6,9.4,58.6s4.4-17.5,7.5-17.5c4.9,0,4.9,0,9.3,0c4.1,0,12.8-9.7,19.1-9.7c6.3,0,12.5,9.6,18.4,9.6s52.3,0,57.1,0
		c4.8,0,6.4-8.6,11.2-8.6c4.8,0,7.1,8.6,12.5,8.6s6.5,0,9.7,0c3.1,0,4.7,10.8,7,10.8s9.1-51.7,12.8-51.7c2.8,0,6.5,58.6,9.4,58.6
		s4.4-17.5,7.5-17.5c4.9,0,4.9,0,9.3,0c4.1,0,11.5-9.7,17.8-9.7"/>
	<path id="XMLID_172_" class="st9" d="M471,528.2c0,11.4-9.1,20.6-20.3,20.6H-16.4c-11.2,0-20.3-9.2-20.3-20.6V198.6
		c0-11.4,9.1-20.6,20.3-20.6h467.2c11.2,0,20.3,9.2,20.3,20.6v329.5H471V528.2z"/>
</g>
</svg>
