<?xml version="1.0" encoding="utf-8"?>
<!-- Generator: Adobe Illustrator 19.0.0, SVG Export Plug-In . SVG Version: 6.00 Build 0)  -->
<svg version="1.1" id="Layer_1" xmlns="http://www.w3.org/2000/svg" xmlns:xlink="http://www.w3.org/1999/xlink" x="0px" y="0px"
	 viewBox="-132 239.7 345.2 314.3" style="enable-background:new -132 239.7 345.2 314.3;" xml:space="preserve">
<style type="text/css">
	.st0{fill:#5CC2A7;}
	.st1{opacity:0.54;}
	.st2{opacity:0;}
	.st3{opacity:0.33;fill:#00AC9C;}
	.st4{fill:#FBC736;}
	.st5{fill:#574744;}
	.st6{fill:#F36E54;}
</style>
<g>
	<polygon id="XMLID_117_" class="st0" points="126.2,536.7 -35.6,537.8 -117.4,400 -37.5,259.6 124.2,259.9 206.1,397.8 	"/>
</g>
<g id="XMLID_30_" class="st1">
	<g id="XMLID_43_" class="st2">
		<path id="XMLID_52_" d="M37.2,345.4h29.7V359h7.6v-16.1c0-4.1-2.6-7.4-5.7-7.4H35.2c-3.1,0-5.7,3.3-5.7,7.4V359h7.6L37.2,345.4
			L37.2,345.4z"/>
		<path id="XMLID_51_" d="M116.9,359H-12.9c-3,0-5.5,3.2-5.5,7.2v26c0,4,2.5,7.2,5.5,7.2h129.8c3,0,5.5-3.2,5.5-7.2v-26
			C122.4,362.3,119.9,359,116.9,359z"/>
		<path id="XMLID_50_" d="M58.3,403.9v14.3h11.8v16.4H58.3v15.5H45.7v-15.5H33.9v-16.4h11.8v-14.3h-58.6c-2.1,0-4-0.9-5.5-2.5v62.4
			c0,4,2.5,7.2,5.5,7.2h129.8c3,0,5.5-3.2,5.5-7.2v-62.4c-1.5,1.6-3.4,2.5-5.5,2.5H58.3z"/>
		<path id="XMLID_49_" d="M10.9,409.7L10.9,409.7c-2,0-3.6-1.6-3.6-3.6v-12c0-2,1.6-3.6,3.6-3.6l0,0c2,0,3.6,1.6,3.6,3.6v12
			C14.4,408.1,12.8,409.7,10.9,409.7z"/>
		<path id="XMLID_48_" d="M103.7,409.7L103.7,409.7c-2,0-3.6-1.6-3.6-3.6v-12c0-2,1.6-3.6,3.6-3.6l0,0c2,0,3.6,1.6,3.6,3.6v12
			C107.3,408.1,105.7,409.7,103.7,409.7z"/>
		<path id="XMLID_47_" d="M-1,409.7L-1,409.7c-2,0-3.6-1.6-3.6-3.6v-12c0-2,1.6-3.6,3.6-3.6l0,0c2,0,3.6,1.6,3.6,3.6v12
			C2.5,408.1,0.9,409.7-1,409.7z"/>
		<path id="XMLID_46_" d="M93.2,409.9L93.2,409.9c-2,0-3.6-1.6-3.6-3.6v-12c0-2,1.6-3.6,3.6-3.6l0,0c2,0,3.6,1.6,3.6,3.6v12
			C96.8,408.2,95.2,409.9,93.2,409.9z"/>
		<ellipse id="XMLID_45_" cx="99.2" cy="388.6" rx="7.4" ry="7.6"/>
		<ellipse id="XMLID_44_" cx="4" cy="389.8" rx="7.4" ry="7.6"/>
	</g>
	<g id="XMLID_56_">
		<path id="XMLID_92_" d="M33.5,340h29.7v13.6h7.6v-16.2c0-4.1-2.6-7.4-5.7-7.4H31.5c-3.1,0-5.7,3.3-5.7,7.4v16.1h7.6L33.5,340
			L33.5,340z"/>
		<path id="XMLID_88_" d="M113.2,353.6H-16.6c-3,0-5.5,3.2-5.5,7.2v26c0,4,2.5,7.2,5.5,7.2h129.8c3,0,5.5-3.2,5.5-7.2v-26
			C118.7,356.8,116.3,353.6,113.2,353.6z"/>
		<path id="XMLID_84_" d="M54.6,398.4v14.3h11.8v16.4H54.6v15.5H42v-15.5H30.2v-16.4H42v-14.3h-58.6c-2.1,0-4-0.9-5.5-2.5v62.4
			c0,4,2.5,7.2,5.5,7.2h129.8c3,0,5.5-3.2,5.5-7.2v-62.4c-1.5,1.6-3.4,2.5-5.5,2.5H54.6z"/>
		<path id="XMLID_80_" d="M7.2,404.3L7.2,404.3c-2,0-3.6-1.6-3.6-3.6v-12c0-2,1.6-3.6,3.6-3.6l0,0c2,0,3.6,1.6,3.6,3.6v12
			C10.8,402.7,9.2,404.3,7.2,404.3z"/>
		<path id="XMLID_76_" d="M100,404.3L100,404.3c-2,0-3.6-1.6-3.6-3.6v-12c0-2,1.6-3.6,3.6-3.6l0,0c2,0,3.6,1.6,3.6,3.6v12
			C103.6,402.7,102,404.3,100,404.3z"/>
		<path id="XMLID_72_" d="M-4.7,404.3L-4.7,404.3c-2,0-3.6-1.6-3.6-3.6v-12c0-2,1.6-3.6,3.6-3.6l0,0c2,0,3.6,1.6,3.6,3.6v12
			C-1.1,402.7-2.7,404.3-4.7,404.3z"/>
		<path id="XMLID_68_" d="M89.5,404.4L89.5,404.4c-2,0-3.6-1.6-3.6-3.6v-12c0-2,1.6-3.6,3.6-3.6l0,0c2,0,3.6,1.6,3.6,3.6v12
			C93.1,402.8,91.5,404.4,89.5,404.4z"/>
		<ellipse id="XMLID_64_" cx="95.6" cy="383.2" rx="7.4" ry="7.6"/>
		<ellipse id="XMLID_60_" cx="0.3" cy="384.3" rx="7.4" ry="7.6"/>
	</g>
</g>
<g id="XMLID_9_">
	<rect x="-24" y="378" class="st3" width="141" height="77"/>
	<path id="XMLID_3_" class="st4" d="M31.8,337.3h29.7v13.6h7.6v-16.2c0-4.1-2.6-7.4-5.7-7.4H29.8c-3.1,0-5.7,3.3-5.7,7.4v16.1h7.6
		L31.8,337.3L31.8,337.3z"/>
	<path id="XMLID_2_" class="st4" d="M111.6,350.9H-18.2c-3,0-5.5,3.2-5.5,7.2v26c0,4,2.5,7.2,5.5,7.2h129.8c3,0,5.5-3.2,5.5-7.2v-26
		C117.1,354.1,114.6,350.9,111.6,350.9z"/>
	<path id="XMLID_1_" class="st5" d="M52.9,395.7V410h11.8v16.4H52.9v15.5H40.3v-15.5H28.5V410h11.8v-14.3h-58.6
		c-2.1,0-4-0.9-5.5-2.5v62.4c0,4,2.5,7.2,5.5,7.2h129.8c3,0,5.5-3.2,5.5-7.2v-62.4c-1.5,1.6-3.4,2.5-5.5,2.5H52.9L52.9,395.7z"/>
	<path id="XMLID_4_" class="st4" d="M5.5,401.6L5.5,401.6c-2,0-3.6-1.6-3.6-3.6v-12c0-2,1.6-3.6,3.6-3.6l0,0c2,0,3.6,1.6,3.6,3.6v12
		C9.1,400,7.5,401.6,5.5,401.6z"/>
	<path id="XMLID_5_" class="st4" d="M98.4,401.6L98.4,401.6c-2,0-3.6-1.6-3.6-3.6v-12c0-2,1.6-3.6,3.6-3.6l0,0c2,0,3.6,1.6,3.6,3.6
		v12C102,400,100.3,401.6,98.4,401.6z"/>
	<path id="XMLID_6_" class="st4" d="M-6.4,401.6L-6.4,401.6c-2,0-3.6-1.6-3.6-3.6v-12c0-2,1.6-3.6,3.6-3.6l0,0c2,0,3.6,1.6,3.6,3.6
		v12C-2.8,400-4.4,401.6-6.4,401.6z"/>
	<path id="XMLID_7_" class="st4" d="M87.9,401.7L87.9,401.7c-2,0-3.6-1.6-3.6-3.6v-12c0-2,1.6-3.6,3.6-3.6l0,0c2,0,3.6,1.6,3.6,3.6
		v12C91.4,400.1,89.8,401.7,87.9,401.7z"/>
	<ellipse id="XMLID_8_" class="st6" cx="93.9" cy="380.4" rx="7.4" ry="7.6"/>
	<ellipse id="XMLID_672_" class="st6" cx="-1.3" cy="381.6" rx="7.4" ry="7.6"/>
</g>
</svg>
