<?xml version="1.0" encoding="utf-8"?>
<!-- Generator: Adobe Illustrator 19.0.0, SVG Export Plug-In . SVG Version: 6.00 Build 0)  -->
<svg version="1.1" id="Layer_1" xmlns="http://www.w3.org/2000/svg" xmlns:xlink="http://www.w3.org/1999/xlink" x="0px" y="0px"
	 viewBox="0 0 345.2 314.3" style="enable-background:new 0 0 345.2 314.3;" xml:space="preserve">
<style type="text/css">
	.st0{fill:#F36E53;}
	.st1{fill:#555456;}
	.st2{fill:#3ABB9B;}
	.st3{fill:#FFFFFF;}
	.st4{fill:#FFFFFD;}
	.st5{fill:#F37059;}
	.st6{fill:#E2E0DC;}
	.st7{fill:#FFCE55;}
</style>
<g>
	<polygon id="XMLID_357_" class="st0" points="254.3,16 92.7,16 11.9,154.5 92.7,293 254.3,293 335.1,154.5 	"/>
	<g>
		<path id="XMLID_355_" class="st1" d="M250.7,212.1c0,2.6-2.1,4.7-4.7,4.7H100.5c-2.6,0-4.7-2.1-4.7-4.7V103.4
			c0-2.6,2.1-4.7,4.7-4.7H246c2.6,0,4.7,2.1,4.7,4.7V212.1z"/>
		<path id="XMLID_354_" class="st2" d="M238.3,205.3c0,2.2-1.8,3.9-3.9,3.9H112.2c-2.2,0-3.9-1.8-3.9-3.9v-91.2
			c0-2.2,1.8-3.9,3.9-3.9h122.2c2.2,0,3.9,1.8,3.9,3.9V205.3z"/>
		<path class="st3" d="M131.1,161.8c2.5,1.6,5.1,3.4,7.7,4.8c0.3-2.2,0.5-4.5,0.7-6.7c-2.9,0-6.1-1.7-7.4-4.9
			c-0.5-1.3-0.9-2.3-1.2-3.8l-0.2-1.9c-1.4,0.1-3,0.8-4.1-0.4c-0.4-0.6,0.3-0.9,0.6-1.1c1.2-0.5,2.2-1.1,3.5-1.3
			c0.1-0.8,0.5-1.5,0.8-2.2c-1.2-0.6-2.7-0.3-3.6-1.7c-0.2-0.4-0.1-0.8,0-1.1c0.2-0.3,0.4-0.5,0.8-0.6c1.2,0.1,2.4,0.4,3.5,0.8
			c0.2,0.1,0.4,0.4,0.6,0.1l0.8-1c-0.9-1.4-2.7-2.1-3-4c0.1-0.4,0.3-0.8,0.6-1c2-0.2,2.8,2.3,4.2,3.3c0.2-0.4,1.1-0.6,0.7-1.2
			c-0.5-1.1-1.6-2.2-1.1-3.6c0.4-0.4,0.8-1,1.4-0.8c1.4,0.8,1.9,2.5,2.4,4l0.1,0.1c0.4-0.2,0.8-0.4,1.3-0.5c-0.2-1.4-0.5-3,0-4.3
			c0.2-0.6,0.9-0.8,1.4-0.5c0.8,0.5,0.7,1.8,0.9,2.6c0,1,0.3,2,0.4,2.8c0.2,0.4,0.6,0.6,1,0.7c0.2-1.5,0.1-3.1,0.2-4.6
			c0.2-0.7,0.6-1.3,1.1-1.6c0.4-0.2,0.9-0.3,1.2,0c0.5,0.4,0.2,1.2,0.4,1.8c-0.2,1.9-0.7,3.8-0.4,5.7c0.2,0.2,0.6,0.5,0.9,0.4
			c1-1.5,1.8-3.4,3.4-3.8c0.2,0.1,0.5,0.3,0.6,0.5c0.4,1.2-0.7,2.3-1.4,3.1c-0.7,0.8-1.8,1.5-1.8,2.9c0.2,0.6,0.6,1.1,0.7,1.8
			l0.1,0.1c1.4-1.1,2.8-2.7,4.7-2.4c0.4,0.1,0.5,0.6,0.5,1c-0.3,1.1-1.4,1.1-2,1.6c-1.1,0.8-1.9,1.9-3,2.7c0,0.2,0.3,0.5,0.5,0.5
			c0.8,0.2,1.9-0.4,2.6,0.4c0.5,1.2-1.5,2.3-0.7,3.6c1.1-0.2,1.1-1.7,2.1-2.1c0.3-0.1,0.5-0.1,0.8-0.1c0.4,1.4-1,2.2-1.5,3.3
			l0.2,0.1l2.6,0.1c0.3,0.1,0.5,0.4,0.6,0.7c-0.1,0.7-0.8,0.9-1.3,1.2c-1.1,0-2.1-0.6-3.3-0.3l-0.5,0.3c-3.6,4.5-7.2,8.9-10.7,13.5
			c-0.3,0.6-0.1,1.4-0.2,2.1c-0.2,3.6-0.7,7.6,0.9,10.9c1.2,3.3,2.4,6.6,3.7,9.9c0.6-1,1.4-1.8,1.6-3c0.3-0.5,0.4-0.9,0.7-1.3
			c0.5-0.1,0.9-0.6,1.4-0.2c0.3,0.2,0.5,0.5,0.4,0.9c-0.2,0.5-0.6,0.8-0.9,1.3c-0.9,1.6-1.8,4-3.4,5.1c-0.4,0.1-0.7,0-1-0.2
			c-0.8-2.2-1.9-4.2-2.7-6.5c-0.5-1.7-1.2-3.5-1.7-5.2c-0.2-0.1-0.4,0.2-0.5,0.3c-1.3,3.5-2.5,7.1-3.8,10.6c-0.6,0.8-1.4,0.1-2.1,0
			c-1.1-0.6-3-1.2-3.1-2.9c0.2-0.3,0.4-0.5,0.6-0.4c1.2,0.2,2.2,1,3.3,1.4c1.6-4.1,3.4-8.1,4.3-12.5c-0.1-3.3,0.3-6.6,0.4-9.9
			l-2.9-1.8l-6.3-3.8c-0.1-0.1-0.1,0-0.2,0l0,0c-0.8-0.9-1.7,0.2-2.6,0.4c-1,0.2-2.1,0.5-2.8-0.5c-0.1-0.3,0-0.8,0.3-0.9
			c0.8-0.3,1.5-0.7,2.4-0.8c-0.9-1-2.2-1.9-2.6-3.4c-0.1-0.3,0-0.6,0.2-0.7c1.4-0.5,2.6,0.9,3.7,1.8c0.3-0.4,0.1-1,0.2-1.4
			c0.3-0.7,0.1-2,1.1-1.9c0.3,0.1,0.4,0.3,0.6,0.6l0.1,0.6l-0.2,3.9L131.1,161.8z M137.1,140.3c-3,2.2-4.6,6.2-4,10.2
			c0.5,3.5,2.5,6.8,5.7,7.6c2.1,0.5,4.3-0.9,5.8-2.7c2.6-2.9,3-7.3,2.1-10.9c-0.3-2.8-2.7-4.3-4.8-5.6
			C140.1,138.6,138.5,139.3,137.1,140.3z M137.4,141.9c-0.4,0.4-0.8,0.9-0.7,1.5c0.2,0.2,0.4,0.4,0.7,0.4c0.3-0.1,0.7-0.2,0.7-0.6
			c0.1-0.3,0.2-0.7,0-1.1C138,141.8,137.7,141.8,137.4,141.9z M141.9,141.4c-0.1,0.2-0.2,0.5,0,0.8c0.1,0.3,0.4,0.3,0.5,0.5
			c0.3,0,0.7,0,0.8-0.4c0.2-0.4,0.2-0.7,0-1.2C142.9,140.4,142.2,141,141.9,141.4z M135.7,143.8c-0.4,0.3-0.5,0.8-0.4,1.2
			c0.5,1,1,2,1.8,2.8c1.2,1.1,2.8,1.4,4.2,1c1.9-0.4,3-2.3,3.6-4.3c0.1-0.7,0.5-1.3,0.5-2.1c0-0.3-0.2-0.6-0.4-0.7
			c-0.5-0.1-0.6,0.5-0.9,0.8c-0.1,0.3,0,0.6,0.2,0.8c-0.2,1.6-0.9,3-2,4.1c-1.4,0.9-3,0.7-4.3-0.1c-0.7-1-1.9-1.9-1.6-3.3
			C136.2,143.8,135.9,143.7,135.7,143.8z M149,150.1c-0.7,3.9-3.2,7.9-6.6,9.1c-0.4,0.2-0.9,0.2-1.1,0.5l-0.4,5.6l1.5-1.8l5.3-6.1
			c0.9-1,1.6-2,2.5-3.1c-0.3-1.3-0.4-2.8-0.3-4.1L149,150.1z M160.3,192.8v0.7"/>
	</g>
	<g id="icon_26_">
		<g>
			<rect id="XMLID_146_" x="167.2" y="129" class="st4" width="54.4" height="59.8"/>
		</g>
		<g>
			<rect id="XMLID_145_" x="171.8" y="134.4" class="st5" width="45.3" height="4.4"/>
		</g>
		<g>
			<rect id="XMLID_144_" x="171.8" y="145.4" class="st6" width="18.1" height="19.9"/>
		</g>
		<g>
			<g>
				<rect id="XMLID_143_" x="194.4" y="145.4" class="st6" width="22.7" height="2.2"/>
			</g>
			<g>
				<rect id="XMLID_142_" x="194.4" y="154.3" class="st6" width="22.7" height="2.2"/>
			</g>
			<g>
				<rect id="XMLID_140_" x="194.4" y="163.1" class="st6" width="22.7" height="2.2"/>
			</g>
			<g>
				<rect id="XMLID_138_" x="194.4" y="149.8" class="st6" width="22.7" height="2.2"/>
			</g>
			<g>
				<rect id="XMLID_136_" x="194.4" y="158.7" class="st6" width="22.7" height="2.2"/>
			</g>
		</g>
		<g>
			<g>
				<rect id="XMLID_122_" x="171.8" y="171.9" class="st6" width="45.3" height="2.2"/>
			</g>
			<g>
				<rect id="XMLID_121_" x="171.8" y="180.8" class="st6" width="45.3" height="2.2"/>
			</g>
			<g>
				<rect id="XMLID_120_" x="171.8" y="167.5" class="st6" width="45.3" height="2.2"/>
			</g>
			<g>
				<rect id="XMLID_119_" x="171.8" y="176.4" class="st6" width="45.3" height="2.2"/>
			</g>
		</g>
		<g>
			<rect id="XMLID_118_" x="171.8" y="141" class="st7" width="45.3" height="2.2"/>
		</g>
	</g>
</g>
</svg>
