<?xml version="1.0" encoding="utf-8"?>
<!-- Generator: Adobe Illustrator 19.0.0, SVG Export Plug-In . SVG Version: 6.00 Build 0)  -->
<svg version="1.1" id="Layer_1" xmlns="http://www.w3.org/2000/svg" xmlns:xlink="http://www.w3.org/1999/xlink" x="0px" y="0px"
	 viewBox="0 0 345.2 314.3" style="enable-background:new 0 0 345.2 314.3;" xml:space="preserve">
<style type="text/css">
	.st0{fill:#FFF488;}
	.st1{opacity:0.6;}
	.st2{opacity:0;}
	.st3{opacity:9.090909e-002;}
	.st4{opacity:0.1818;}
	.st5{opacity:0.2727;}
	.st6{opacity:0.3636;}
	.st7{opacity:0.4545;}
	.st8{opacity:0.5455;}
	.st9{opacity:0.6364;}
	.st10{opacity:0.7273;}
	.st11{opacity:0.8182;}
	.st12{opacity:0.9091;}
	.st13{fill:url(#XMLID_10_);}
	.st14{fill:#F37059;}
	.st15{fill:#009D9D;}
	.st16{fill:#70C7AD;}
	.st17{fill:#00B09C;}
	.st18{fill:#DD9C75;}
	.st19{fill:#504D4C;}
</style>
<g>
	<polygon class="st0" points="255.2,295.3 93.4,296.4 11.6,158.6 91.5,18.2 253.2,18.5 335.1,156.4 	"/>
	<g id="XMLID_2_">
		<g id="XMLID_1386_">
			<g id="XMLID_1403_" class="st1">
				<g id="XMLID_1404_">
					<g id="XMLID_1580_" class="st2">
						<g id="pencil_22_">
							<g id="XMLID_1594_">
								<path id="XMLID_1595_" d="M192.1,113c-1.7,0.1,26-31.5,26.1-29.8c1-3,3-3.1,4.1-0.2c0.1-1.7,26.5,21.9,24.8,22.2
									c3,0.8,3.1,2.8,0.3,4.1c1.7-0.1-26,31.5-26.1,29.8C221.4,140.9,190.4,113.1,192.1,113z"/>
							</g>
							<g id="XMLID_1592_">
								<path id="XMLID_1593_" d="M192.1,113c-1.7,0.1,26-31.5,26.1-29.8c1-3,3-3.1,4.1-0.2c0.1-1.7,26.5,21.9,24.8,22.2
									c3,0.8,3.1,2.8,0.3,4.1c1.7-0.1-26,31.5-26.1,29.8C221.4,140.9,190.4,113.1,192.1,113z"/>
							</g>
							<g id="XMLID_1585_">
								<g id="XMLID_1590_">
									<path id="XMLID_1591_" d="M195,113.3c1.2-4.3-0.8-4.2-4.1,0.2c2.2-3.1-84.8,96.2-82,93.5c-2.9,2.7,6.7,11.2,9,8
										c-2.3,3.2,86.7-98.4,83.9-95.7C204.6,116.6,197.5,110.2,195,113.3z"/>
								</g>
								<g id="XMLID_1588_">
									<path id="XMLID_1589_" d="M214.4,130.7c2.4-3.2-86.7,98.4-83.9,95.7c-2.8,2.7,6.2,10.8,8.5,7.6c-2.3,3.2,84.7-96.1,82-93.5
										c3.9-3.9,3.8-5.9-0.3-4.2C223.4,133.5,216.7,127.5,214.4,130.7z"/>
								</g>
								<g id="XMLID_1586_">
									<path id="XMLID_1587_" d="M202.1,119.7c2.2-3.3-86.8,98.3-83.9,95.7c-3,2.6,9.8,14,12,10.7c-2.2,3.3,86.8-98.3,83.9-95.7
										C217,127.8,204.3,116.4,202.1,119.7z"/>
								</g>
							</g>
							<g id="XMLID_1583_">
								<path id="XMLID_1584_" d="M137.2,235.3c1.2,0.4-36.9,14.2-35.9,13c-2.6,1.8-3.6,1-2-1.8c-1.2,1.1,7.8-38.8,8.4-37.6
									C107.2,207.8,138.4,235.8,137.2,235.3z"/>
							</g>
							<g id="XMLID_1581_">
								<path id="XMLID_1582_" d="M101.6,235.2c-0.2-0.4-3,12-2.6,11.7c-0.8,2,0.1,2.8,2,1.8c-0.3,0.4,11.6-3.9,11.2-4.1
									C112.6,244.8,101.4,234.8,101.6,235.2z"/>
							</g>
						</g>
					</g>
					<g id="XMLID_1564_" class="st3">
						<g id="XMLID_1578_">
							<path id="XMLID_1579_" d="M192.2,112.1c-1.7,0.1,26-31.5,26.1-29.8c1-3,3-3.1,4.1-0.2c0.1-1.7,26.5,21.9,24.8,22.2
								c3,0.8,3.1,2.8,0.3,4.1c1.7-0.1-26,31.5-26.1,29.8C221.5,140,190.5,112.3,192.2,112.1z"/>
						</g>
						<g id="XMLID_1576_">
							<path id="XMLID_1577_" d="M192.2,112.1c-1.7,0.1,26-31.5,26.1-29.8c1-3,3-3.1,4.1-0.2c0.1-1.7,26.5,21.9,24.8,22.2
								c3,0.8,3.1,2.8,0.3,4.1c1.7-0.1-26,31.5-26.1,29.8C221.5,140,190.5,112.3,192.2,112.1z"/>
						</g>
						<g id="XMLID_1569_">
							<g id="XMLID_1574_">
								<path id="XMLID_1575_" d="M195.1,112.5c1.2-4.3-0.8-4.2-4.1,0.2c2.2-3.1-84.8,96.2-82,93.5c-2.9,2.7,6.7,11.2,9,8
									c-2.3,3.2,86.7-98.4,83.9-95.7C204.7,115.8,197.5,109.4,195.1,112.5z"/>
							</g>
							<g id="XMLID_1572_">
								<path id="XMLID_1573_" d="M214.4,129.9c2.4-3.2-86.7,98.4-83.9,95.7c-2.8,2.7,6.2,10.8,8.5,7.6c-2.3,3.2,84.7-96.1,82-93.5
									c3.9-3.9,3.8-5.9-0.3-4.2C223.5,132.6,216.8,126.7,214.4,129.9z"/>
							</g>
							<g id="XMLID_1570_">
								<path id="XMLID_1571_" d="M202.2,118.8c2.2-3.3-86.8,98.3-83.9,95.7c-3,2.6,9.8,14,12,10.7c-2.2,3.3,86.8-98.3,83.9-95.7
									C217.1,126.9,204.4,115.5,202.2,118.8z"/>
							</g>
						</g>
						<g id="XMLID_1567_">
							<path id="XMLID_1568_" d="M137.3,234.5c1.2,0.4-36.9,14.2-35.9,13c-2.6,1.8-3.6,1-2-1.8c-1.2,1.1,7.8-38.8,8.4-37.6
								C107.2,206.9,138.5,234.9,137.3,234.5z"/>
						</g>
						<g id="XMLID_1565_">
							<path id="XMLID_1566_" d="M101.7,234.4c-0.2-0.4-3,12-2.6,11.7c-0.8,2,0.1,2.8,2,1.8c-0.3,0.4,11.6-3.9,11.2-4.1
								C112.7,244,101.5,234,101.7,234.4z"/>
						</g>
					</g>
					<g id="XMLID_1548_" class="st4">
						<g id="XMLID_1562_">
							<path id="XMLID_1563_" d="M192.3,111.3c-1.7,0.1,26-31.5,26.1-29.8c1-3,3-3.1,4.1-0.2c0.1-1.7,26.5,21.9,24.8,22.2
								c3,0.8,3.1,2.8,0.3,4.1c1.7-0.1-26,31.5-26.1,29.8C221.6,139.2,190.6,111.4,192.3,111.3z"/>
						</g>
						<g id="XMLID_1560_">
							<path id="XMLID_1561_" d="M192.3,111.3c-1.7,0.1,26-31.5,26.1-29.8c1-3,3-3.1,4.1-0.2c0.1-1.7,26.5,21.9,24.8,22.2
								c3,0.8,3.1,2.8,0.3,4.1c1.7-0.1-26,31.5-26.1,29.8C221.6,139.2,190.6,111.4,192.3,111.3z"/>
						</g>
						<g id="XMLID_1553_">
							<g id="XMLID_1558_">
								<path id="XMLID_1559_" d="M195.1,111.7c1.2-4.3-0.8-4.2-4.1,0.2c2.2-3.1-84.8,96.2-82,93.5c-2.9,2.7,6.7,11.2,9,8
									c-2.3,3.2,86.7-98.4,83.9-95.7C204.8,115,197.6,108.5,195.1,111.7z"/>
							</g>
							<g id="XMLID_1556_">
								<path id="XMLID_1557_" d="M214.5,129c2.4-3.2-86.7,98.4-83.9,95.7c-2.8,2.7,6.2,10.8,8.5,7.6c-2.3,3.2,84.7-96.1,82-93.5
									c3.9-3.9,3.8-5.9-0.3-4.2C223.5,131.8,216.9,125.8,214.5,129z"/>
							</g>
							<g id="XMLID_1554_">
								<path id="XMLID_1555_" d="M202.2,118c2.2-3.3-86.8,98.3-83.9,95.7c-3,2.6,9.8,14,12,10.7c-2.2,3.3,86.8-98.3,83.9-95.7
									C217.2,126.1,204.5,114.7,202.2,118z"/>
							</g>
						</g>
						<g id="XMLID_1551_">
							<path id="XMLID_1552_" d="M137.4,233.7c1.2,0.4-36.9,14.2-35.9,13c-2.6,1.8-3.6,1-2-1.8c-1.2,1.1,7.8-38.8,8.4-37.6
								C107.3,206.1,138.6,234.1,137.4,233.7z"/>
						</g>
						<g id="XMLID_1549_">
							<path id="XMLID_1550_" d="M101.8,233.6c-0.2-0.4-3,12-2.6,11.7c-0.8,2,0.1,2.8,2,1.8c-0.3,0.4,11.6-3.9,11.2-4.1
								C112.7,243.2,101.5,233.1,101.8,233.6z"/>
						</g>
					</g>
					<g id="XMLID_1532_" class="st5">
						<g id="XMLID_1546_">
							<path id="XMLID_1547_" d="M192.4,110.5c-1.7,0.1,26-31.5,26.1-29.8c1-3,3-3.1,4.1-0.2c0.1-1.7,26.5,21.9,24.8,22.2
								c3,0.8,3.1,2.8,0.3,4.1c1.7-0.1-26,31.5-26.1,29.8C221.6,138.4,190.6,110.6,192.4,110.5z"/>
						</g>
						<g id="XMLID_1544_">
							<path id="XMLID_1545_" d="M192.4,110.5c-1.7,0.1,26-31.5,26.1-29.8c1-3,3-3.1,4.1-0.2c0.1-1.7,26.5,21.9,24.8,22.2
								c3,0.8,3.1,2.8,0.3,4.1c1.7-0.1-26,31.5-26.1,29.8C221.6,138.4,190.6,110.6,192.4,110.5z"/>
						</g>
						<g id="XMLID_1537_">
							<g id="XMLID_1542_">
								<path id="XMLID_1543_" d="M195.2,110.8c1.2-4.3-0.8-4.2-4.1,0.2c2.2-3.1-84.8,96.2-82,93.5c-2.9,2.7,6.7,11.2,9,8
									c-2.3,3.2,86.7-98.4,83.9-95.7C204.8,114.2,197.7,107.7,195.2,110.8z"/>
							</g>
							<g id="XMLID_1540_">
								<path id="XMLID_1541_" d="M214.6,128.2c2.4-3.2-86.7,98.4-83.9,95.7c-2.8,2.7,6.2,10.8,8.5,7.6c-2.3,3.2,84.7-96.1,82-93.5
									c3.9-3.9,3.8-5.9-0.3-4.2C223.6,131,216.9,125,214.6,128.2z"/>
							</g>
							<g id="XMLID_1538_">
								<path id="XMLID_1539_" d="M202.3,117.2c2.2-3.3-86.8,98.3-83.9,95.7c-3,2.6,9.8,14,12,10.7c-2.2,3.3,86.8-98.3,83.9-95.7
									C217.2,125.3,204.5,113.9,202.3,117.2z"/>
							</g>
						</g>
						<g id="XMLID_1535_">
							<path id="XMLID_1536_" d="M137.4,232.9c1.2,0.4-36.9,14.2-35.9,13c-2.6,1.8-3.6,1-2-1.8c-1.2,1.1,7.8-38.8,8.4-37.6
								C107.4,205.3,138.6,233.3,137.4,232.9z"/>
						</g>
						<g id="XMLID_1533_">
							<path id="XMLID_1534_" d="M101.8,232.7c-0.2-0.4-3,12-2.6,11.7c-0.8,2,0.1,2.8,2,1.8c-0.3,0.4,11.6-3.9,11.2-4.1
								C112.8,242.4,101.6,232.3,101.8,232.7z"/>
						</g>
					</g>
					<g id="XMLID_1516_" class="st6">
						<g id="XMLID_1530_">
							<path id="XMLID_1531_" d="M192.4,109.6c-1.7,0.1,26-31.5,26.1-29.8c1-3,3-3.1,4.1-0.2c0.1-1.7,26.5,21.9,24.8,22.2
								c3,0.8,3.1,2.8,0.3,4.1c1.7-0.1-26,31.5-26.1,29.8C221.7,137.6,190.7,109.8,192.4,109.6z"/>
						</g>
						<g id="XMLID_1528_">
							<path id="XMLID_1529_" d="M192.4,109.6c-1.7,0.1,26-31.5,26.1-29.8c1-3,3-3.1,4.1-0.2c0.1-1.7,26.5,21.9,24.8,22.2
								c3,0.8,3.1,2.8,0.3,4.1c1.7-0.1-26,31.5-26.1,29.8C221.7,137.6,190.7,109.8,192.4,109.6z"/>
						</g>
						<g id="XMLID_1521_">
							<g id="XMLID_1526_">
								<path id="XMLID_1527_" d="M195.3,110c1.2-4.3-0.8-4.2-4.1,0.2c2.2-3.1-84.8,96.2-82,93.5c-2.9,2.7,6.7,11.2,9,8
									c-2.3,3.2,86.7-98.4,83.9-95.7C204.9,113.3,197.7,106.9,195.3,110z"/>
							</g>
							<g id="XMLID_1524_">
								<path id="XMLID_1525_" d="M214.6,127.4c2.4-3.2-86.7,98.4-83.9,95.7c-2.8,2.7,6.2,10.8,8.5,7.6c-2.3,3.2,84.7-96.1,82-93.5
									c3.9-3.9,3.8-5.9-0.3-4.2C223.7,130.1,217,124.2,214.6,127.4z"/>
							</g>
							<g id="XMLID_1522_">
								<path id="XMLID_1523_" d="M202.4,116.4c2.2-3.3-86.8,98.3-83.9,95.7c-3,2.6,9.8,14,12,10.7c-2.2,3.3,86.8-98.3,83.9-95.7
									C217.3,124.5,204.6,113.1,202.4,116.4z"/>
							</g>
						</g>
						<g id="XMLID_1519_">
							<path id="XMLID_1520_" d="M137.5,232c1.2,0.4-36.9,14.2-35.9,13c-2.6,1.8-3.6,1-2-1.8c-1.2,1.1,7.8-38.8,8.4-37.6
								C107.4,204.5,138.7,232.4,137.5,232z"/>
						</g>
						<g id="XMLID_1517_">
							<path id="XMLID_1518_" d="M101.9,231.9c-0.2-0.4-3,12-2.6,11.7c-0.8,2,0.1,2.8,2,1.8c-0.3,0.4,11.6-3.9,11.2-4.1
								C112.9,241.5,101.7,231.5,101.9,231.9z"/>
						</g>
					</g>
					<g id="XMLID_1500_" class="st7">
						<g id="XMLID_1514_">
							<path id="XMLID_1515_" d="M192.5,108.8c-1.7,0.1,26-31.5,26.1-29.8c1-3,3-3.1,4.1-0.2c0.1-1.7,26.5,21.9,24.8,22.2
								c3,0.8,3.1,2.8,0.3,4.1c1.7-0.1-26,31.5-26.1,29.8C221.8,136.7,190.8,109,192.5,108.8z"/>
						</g>
						<g id="XMLID_1512_">
							<path id="XMLID_1513_" d="M192.5,108.8c-1.7,0.1,26-31.5,26.1-29.8c1-3,3-3.1,4.1-0.2c0.1-1.7,26.5,21.9,24.8,22.2
								c3,0.8,3.1,2.8,0.3,4.1c1.7-0.1-26,31.5-26.1,29.8C221.8,136.7,190.8,109,192.5,108.8z"/>
						</g>
						<g id="XMLID_1505_">
							<g id="XMLID_1510_">
								<path id="XMLID_1511_" d="M195.3,109.2c1.2-4.3-0.8-4.2-4.1,0.2c2.2-3.1-84.8,96.2-82,93.5c-2.9,2.7,6.7,11.2,9,8
									c-2.3,3.2,86.7-98.4,83.9-95.7C205,112.5,197.8,106.1,195.3,109.2z"/>
							</g>
							<g id="XMLID_1508_">
								<path id="XMLID_1509_" d="M214.7,126.5c2.4-3.2-86.7,98.4-83.9,95.7c-2.8,2.7,6.2,10.8,8.5,7.6c-2.3,3.2,84.7-96.1,82-93.5
									c3.9-3.9,3.8-5.9-0.3-4.2C223.8,129.3,217.1,123.3,214.7,126.5z"/>
							</g>
							<g id="XMLID_1506_">
								<path id="XMLID_1507_" d="M202.4,115.5c2.2-3.3-86.8,98.3-83.9,95.7c-3,2.6,9.8,14,12,10.7c-2.2,3.3,86.8-98.3,83.9-95.7
									C217.4,123.6,204.7,112.2,202.4,115.5z"/>
							</g>
						</g>
						<g id="XMLID_1503_">
							<path id="XMLID_1504_" d="M137.6,231.2c1.2,0.4-36.9,14.2-35.9,13c-2.6,1.8-3.6,1-2-1.8c-1.2,1.1,7.8-38.8,8.4-37.6
								C107.5,203.6,138.8,231.6,137.6,231.2z"/>
						</g>
						<g id="XMLID_1501_">
							<path id="XMLID_1502_" d="M102,231.1c-0.2-0.4-3,12-2.6,11.7c-0.8,2,0.1,2.8,2,1.8c-0.3,0.4,11.6-3.9,11.2-4.1
								C112.9,240.7,101.7,230.7,102,231.1z"/>
						</g>
					</g>
					<g id="XMLID_1484_" class="st8">
						<g id="XMLID_1498_">
							<path id="XMLID_1499_" d="M192.6,108c-1.7,0.1,26-31.5,26.1-29.8c1-3,3-3.1,4.1-0.2c0.1-1.7,26.5,21.9,24.8,22.2
								c3,0.8,3.1,2.8,0.3,4.1c1.7-0.1-26,31.5-26.1,29.8C221.8,135.9,190.8,108.1,192.6,108z"/>
						</g>
						<g id="XMLID_1496_">
							<path id="XMLID_1497_" d="M192.6,108c-1.7,0.1,26-31.5,26.1-29.8c1-3,3-3.1,4.1-0.2c0.1-1.7,26.5,21.9,24.8,22.2
								c3,0.8,3.1,2.8,0.3,4.1c1.7-0.1-26,31.5-26.1,29.8C221.8,135.9,190.8,108.1,192.6,108z"/>
						</g>
						<g id="XMLID_1489_">
							<g id="XMLID_1494_">
								<path id="XMLID_1495_" d="M195.4,108.4c1.2-4.3-0.8-4.2-4.1,0.2c2.2-3.1-84.8,96.2-82,93.5c-2.9,2.7,6.7,11.2,9,8
									c-2.3,3.2,86.7-98.4,83.9-95.7C205,111.7,197.9,105.2,195.4,108.4z"/>
							</g>
							<g id="XMLID_1492_">
								<path id="XMLID_1493_" d="M214.8,125.7c2.4-3.2-86.7,98.4-83.9,95.7c-2.8,2.7,6.2,10.8,8.5,7.6c-2.3,3.2,84.7-96.1,82-93.5
									c3.9-3.9,3.8-5.9-0.3-4.2C223.8,128.5,217.2,122.5,214.8,125.7z"/>
							</g>
							<g id="XMLID_1490_">
								<path id="XMLID_1491_" d="M202.5,114.7c2.2-3.3-86.8,98.3-83.9,95.7c-3,2.6,9.8,14,12,10.7c-2.2,3.3,86.8-98.3,83.9-95.7
									C217.5,122.8,204.7,111.4,202.5,114.7z"/>
							</g>
						</g>
						<g id="XMLID_1487_">
							<path id="XMLID_1488_" d="M137.7,230.4c1.2,0.4-36.9,14.2-35.9,13c-2.6,1.8-3.6,1-2-1.8c-1.2,1.1,7.8-38.8,8.4-37.6
								C107.6,202.8,138.8,230.8,137.7,230.4z"/>
						</g>
						<g id="XMLID_1485_">
							<path id="XMLID_1486_" d="M102.1,230.3c-0.2-0.4-3,12-2.6,11.7c-0.8,2,0.1,2.8,2,1.8c-0.3,0.4,11.6-3.9,11.2-4.1
								C113,239.9,101.8,229.8,102.1,230.3z"/>
						</g>
					</g>
					<g id="XMLID_1468_" class="st9">
						<g id="XMLID_1482_">
							<path id="XMLID_1483_" d="M192.6,107.2c-1.7,0.1,26-31.5,26.1-29.8c1-3,3-3.1,4.1-0.2c0.1-1.7,26.5,21.9,24.8,22.2
								c3,0.8,3.1,2.8,0.3,4.1c1.7-0.1-26,31.5-26.1,29.8C221.9,135.1,190.9,107.3,192.6,107.2z"/>
						</g>
						<g id="XMLID_1480_">
							<path id="XMLID_1481_" d="M192.6,107.2c-1.7,0.1,26-31.5,26.1-29.8c1-3,3-3.1,4.1-0.2c0.1-1.7,26.5,21.9,24.8,22.2
								c3,0.8,3.1,2.8,0.3,4.1c1.7-0.1-26,31.5-26.1,29.8C221.9,135.1,190.9,107.3,192.6,107.2z"/>
						</g>
						<g id="XMLID_1473_">
							<g id="XMLID_1478_">
								<path id="XMLID_1479_" d="M195.5,107.5c1.2-4.3-0.8-4.2-4.1,0.2c2.2-3.1-84.8,96.2-82,93.5c-2.9,2.7,6.7,11.2,9,8
									c-2.3,3.2,86.7-98.4,83.9-95.7C205.1,110.9,197.9,104.4,195.5,107.5z"/>
							</g>
							<g id="XMLID_1476_">
								<path id="XMLID_1477_" d="M214.9,124.9c2.4-3.2-86.7,98.4-83.9,95.7c-2.8,2.7,6.2,10.8,8.5,7.6c-2.3,3.2,84.7-96.1,82-93.5
									c3.9-3.9,3.8-5.9-0.3-4.2C223.9,127.7,217.2,121.7,214.9,124.9z"/>
							</g>
							<g id="XMLID_1474_">
								<path id="XMLID_1475_" d="M202.6,113.9c2.2-3.3-86.8,98.3-83.9,95.7c-3,2.6,9.8,14,12,10.7c-2.2,3.3,86.8-98.3,83.9-95.7
									C217.5,122,204.8,110.6,202.6,113.9z"/>
							</g>
						</g>
						<g id="XMLID_1471_">
							<path id="XMLID_1472_" d="M137.7,229.5c1.2,0.4-36.9,14.2-35.9,13c-2.6,1.8-3.6,1-2-1.8c-1.2,1.1,7.8-38.8,8.4-37.6
								C107.6,202,138.9,230,137.7,229.5z"/>
						</g>
						<g id="XMLID_1469_">
							<path id="XMLID_1470_" d="M102.1,229.4c-0.2-0.4-3,12-2.6,11.7c-0.8,2,0.1,2.8,2,1.8c-0.3,0.4,11.6-3.9,11.2-4.1
								C113.1,239,101.9,229,102.1,229.4z"/>
						</g>
					</g>
					<g id="XMLID_1452_" class="st10">
						<g id="XMLID_1466_">
							<path id="XMLID_1467_" d="M192.7,106.3c-1.7,0.1,26-31.5,26.1-29.8c1-3,3-3.1,4.1-0.2c0.1-1.7,26.5,21.9,24.8,22.2
								c3,0.8,3.1,2.8,0.3,4.1c1.7-0.1-26,31.5-26.1,29.8C222,134.2,191,106.5,192.7,106.3z"/>
						</g>
						<g id="XMLID_1464_">
							<path id="XMLID_1465_" d="M192.7,106.3c-1.7,0.1,26-31.5,26.1-29.8c1-3,3-3.1,4.1-0.2c0.1-1.7,26.5,21.9,24.8,22.2
								c3,0.8,3.1,2.8,0.3,4.1c1.7-0.1-26,31.5-26.1,29.8C222,134.2,191,106.5,192.7,106.3z"/>
						</g>
						<g id="XMLID_1457_">
							<g id="XMLID_1462_">
								<path id="XMLID_1463_" d="M195.5,106.7c1.2-4.3-0.8-4.2-4.1,0.2c2.2-3.1-84.8,96.2-82,93.5c-2.9,2.7,6.7,11.2,9,8
									c-2.3,3.2,86.7-98.4,83.9-95.7C205.2,110,198,103.6,195.5,106.7z"/>
							</g>
							<g id="XMLID_1460_">
								<path id="XMLID_1461_" d="M214.9,124.1c2.4-3.2-86.7,98.4-83.9,95.7c-2.8,2.7,6.2,10.8,8.5,7.6c-2.3,3.2,84.7-96.1,82-93.5
									c3.9-3.9,3.8-5.9-0.3-4.2C224,126.8,217.3,120.9,214.9,124.1z"/>
							</g>
							<g id="XMLID_1458_">
								<path id="XMLID_1459_" d="M202.6,113c2.2-3.3-86.8,98.3-83.9,95.7c-3,2.6,9.8,14,12,10.7c-2.2,3.3,86.8-98.3,83.9-95.7
									C217.6,121.1,204.9,109.8,202.6,113z"/>
							</g>
						</g>
						<g id="XMLID_1455_">
							<path id="XMLID_1456_" d="M137.8,228.7c1.2,0.4-36.9,14.2-35.9,13c-2.6,1.8-3.6,1-2-1.8c-1.2,1.1,7.8-38.8,8.4-37.6
								C107.7,201.1,139,229.1,137.8,228.7z"/>
						</g>
						<g id="XMLID_1453_">
							<path id="XMLID_1454_" d="M102.2,228.6c-0.2-0.4-3,12-2.6,11.7c-0.8,2,0.1,2.8,2,1.8c-0.3,0.4,11.6-3.9,11.2-4.1
								C113.1,238.2,101.9,228.2,102.2,228.6z"/>
						</g>
					</g>
					<g id="XMLID_1436_" class="st11">
						<g id="XMLID_1450_">
							<path id="XMLID_1451_" d="M192.8,105.5c-1.7,0.1,26-31.5,26.1-29.8c1-3,3-3.1,4.1-0.2c0.1-1.7,26.5,21.9,24.8,22.2
								c3,0.8,3.1,2.8,0.3,4.1c1.7-0.1-26,31.5-26.1,29.8C222,133.4,191,105.6,192.8,105.5z"/>
						</g>
						<g id="XMLID_1448_">
							<path id="XMLID_1449_" d="M192.8,105.5c-1.7,0.1,26-31.5,26.1-29.8c1-3,3-3.1,4.1-0.2c0.1-1.7,26.5,21.9,24.8,22.2
								c3,0.8,3.1,2.8,0.3,4.1c1.7-0.1-26,31.5-26.1,29.8C222,133.4,191,105.6,192.8,105.5z"/>
						</g>
						<g id="XMLID_1441_">
							<g id="XMLID_1446_">
								<path id="XMLID_1447_" d="M195.6,105.9c1.2-4.3-0.8-4.2-4.1,0.2c2.2-3.1-84.8,96.2-82,93.5c-2.9,2.7,6.7,11.2,9,8
									c-2.3,3.2,86.7-98.4,83.9-95.7C205.3,109.2,198.1,102.8,195.6,105.9z"/>
							</g>
							<g id="XMLID_1444_">
								<path id="XMLID_1445_" d="M215,123.2c2.4-3.2-86.7,98.4-83.9,95.7c-2.8,2.7,6.2,10.8,8.5,7.6c-2.3,3.2,84.7-96.1,82-93.5
									c3.9-3.9,3.8-5.9-0.3-4.2C224,126,217.4,120,215,123.2z"/>
							</g>
							<g id="XMLID_1442_">
								<path id="XMLID_1443_" d="M202.7,112.2c2.2-3.3-86.8,98.3-83.9,95.7c-3,2.6,9.8,14,12,10.7c-2.2,3.3,86.8-98.3,83.9-95.7
									C217.7,120.3,204.9,108.9,202.7,112.2z"/>
							</g>
						</g>
						<g id="XMLID_1439_">
							<path id="XMLID_1440_" d="M137.9,227.9c1.2,0.4-36.9,14.2-35.9,13c-2.6,1.8-3.6,1-2-1.8c-1.2,1.1,7.8-38.8,8.4-37.6
								C107.8,200.3,139,228.3,137.9,227.9z"/>
						</g>
						<g id="XMLID_1437_">
							<path id="XMLID_1438_" d="M102.3,227.8c-0.2-0.4-3,12-2.6,11.7c-0.8,2,0.1,2.8,2,1.8c-0.3,0.4,11.6-3.9,11.2-4.1
								C113.2,237.4,102,227.3,102.3,227.8z"/>
						</g>
					</g>
					<g id="XMLID_1420_" class="st12">
						<g id="XMLID_1434_">
							<path id="XMLID_1435_" d="M192.8,104.7c-1.7,0.1,26-31.5,26.1-29.8c1-3,3-3.1,4.1-0.2c0.1-1.7,26.5,21.9,24.8,22.2
								c3,0.8,3.1,2.8,0.3,4.1c1.7-0.1-26,31.5-26.1,29.8C222.1,132.6,191.1,104.8,192.8,104.7z"/>
						</g>
						<g id="XMLID_1432_">
							<path id="XMLID_1433_" d="M192.8,104.7c-1.7,0.1,26-31.5,26.1-29.8c1-3,3-3.1,4.1-0.2c0.1-1.7,26.5,21.9,24.8,22.2
								c3,0.8,3.1,2.8,0.3,4.1c1.7-0.1-26,31.5-26.1,29.8C222.1,132.6,191.1,104.8,192.8,104.7z"/>
						</g>
						<g id="XMLID_1425_">
							<g id="XMLID_1430_">
								<path id="XMLID_1431_" d="M195.7,105c1.2-4.3-0.8-4.2-4.1,0.2c2.2-3.1-84.8,96.2-82,93.5c-2.9,2.7,6.7,11.2,9,8
									c-2.3,3.2,86.7-98.4,83.9-95.7C205.3,108.4,198.1,101.9,195.7,105z"/>
							</g>
							<g id="XMLID_1428_">
								<path id="XMLID_1429_" d="M215.1,122.4c2.4-3.2-86.7,98.4-83.9,95.7c-2.8,2.7,6.2,10.8,8.5,7.6c-2.3,3.2,84.7-96.1,82-93.5
									c3.9-3.9,3.8-5.9-0.3-4.2C224.1,125.2,217.4,119.2,215.1,122.4z"/>
							</g>
							<g id="XMLID_1426_">
								<path id="XMLID_1427_" d="M202.8,111.4c2.2-3.3-86.8,98.3-83.9,95.7c-3,2.6,9.8,14,12,10.7c-2.2,3.3,86.8-98.3,83.9-95.7
									C217.7,119.5,205,108.1,202.8,111.4z"/>
							</g>
						</g>
						<g id="XMLID_1423_">
							<path id="XMLID_1424_" d="M137.9,227.1c1.2,0.4-36.9,14.2-35.9,13c-2.6,1.8-3.6,1-2-1.8c-1.2,1.1,7.8-38.8,8.4-37.6
								C107.9,199.5,139.1,227.5,137.9,227.1z"/>
						</g>
						<g id="XMLID_1421_">
							<path id="XMLID_1422_" d="M102.3,226.9c-0.2-0.4-3,12-2.6,11.7c-0.8,2,0.1,2.8,2,1.8c-0.3,0.4,11.6-3.9,11.2-4.1
								C113.3,236.6,102.1,226.5,102.3,226.9z"/>
						</g>
					</g>
					<g id="pencil_21_">
						<g id="XMLID_1418_">
							<path id="XMLID_1419_" d="M192.9,103.8c-1.7,0.1,26-31.5,26.1-29.8c1-3,3-3.1,4.1-0.2c0.1-1.7,26.5,21.9,24.8,22.2
								c3,0.8,3.1,2.8,0.3,4.1c1.7-0.1-26,31.5-26.1,29.8C222.2,131.8,191.2,104,192.9,103.8z"/>
						</g>
						<g id="XMLID_1416_">
							<path id="XMLID_1417_" d="M192.9,103.8c-1.7,0.1,26-31.5,26.1-29.8c1-3,3-3.1,4.1-0.2c0.1-1.7,26.5,21.9,24.8,22.2
								c3,0.8,3.1,2.8,0.3,4.1c1.7-0.1-26,31.5-26.1,29.8C222.2,131.8,191.2,104,192.9,103.8z"/>
						</g>
						<g id="XMLID_1409_">
							<g id="XMLID_1414_">
								<path id="XMLID_1415_" d="M195.8,104.2c1.2-4.3-0.8-4.2-4.1,0.2c2.2-3.1-84.8,96.2-82,93.5c-2.9,2.7,6.7,11.2,9,8
									c-2.3,3.2,86.7-98.4,83.9-95.7C205.4,107.5,198.2,101.1,195.8,104.2z"/>
							</g>
							<g id="XMLID_1412_">
								<path id="XMLID_1413_" d="M215.1,121.6c2.4-3.2-86.7,98.4-83.9,95.7c-2.8,2.7,6.2,10.8,8.5,7.6c-2.3,3.2,84.7-96.1,82-93.5
									c3.9-3.9,3.8-5.9-0.3-4.2C224.2,124.3,217.5,118.4,215.1,121.6z"/>
							</g>
							<g id="XMLID_1410_">
								<path id="XMLID_1411_" d="M202.8,110.6c2.2-3.3-86.8,98.3-83.9,95.7c-3,2.6,9.8,14,12,10.7c-2.2,3.3,86.8-98.3,83.9-95.7
									C217.8,118.7,205.1,107.3,202.8,110.6z"/>
							</g>
						</g>
						<g id="XMLID_1407_">
							<path id="XMLID_1408_" d="M138,226.2c1.2,0.4-36.9,14.2-35.9,13c-2.6,1.8-3.6,1-2-1.8c-1.2,1.1,7.8-38.8,8.4-37.6
								C107.9,198.7,139.2,226.6,138,226.2z"/>
						</g>
						<g id="XMLID_1405_">
							<path id="XMLID_1406_" d="M102.4,226.1c-0.2-0.4-3,12-2.6,11.7c-0.8,2,0.1,2.8,2,1.8c-0.3,0.4,11.6-3.9,11.2-4.1
								C113.3,235.7,102.2,225.7,102.4,226.1z"/>
						</g>
					</g>
				</g>
			</g>
			<g id="XMLID_1387_">
				<g id="pencil_20_">
					<g id="XMLID_1401_">
						
							<radialGradient id="XMLID_10_" cx="2430.3787" cy="-1736.354" r="20.7085" gradientTransform="matrix(2.1769 1.9501 -1.9019 2.1698 -8388.4473 -904.5894)" gradientUnits="userSpaceOnUse">
							<stop  offset="0" style="stop-color:#F69C98"/>
							<stop  offset="0.1803" style="stop-color:#F39994"/>
							<stop  offset="0.3424" style="stop-color:#EA908A"/>
							<stop  offset="0.4974" style="stop-color:#E0837A"/>
							<stop  offset="0.6483" style="stop-color:#D47267"/>
							<stop  offset="0.796" style="stop-color:#C45C51"/>
							<stop  offset="0.9394" style="stop-color:#B34338"/>
							<stop  offset="1" style="stop-color:#AC362E"/>
						</radialGradient>
						<path id="XMLID_1402_" class="st13" d="M192.9,103.8c-1.7,0.1,26-31.5,26.1-29.8c1-3,3-3.1,4.1-0.2
							c0.1-1.7,26.5,21.9,24.8,22.2c3,0.8,3.1,2.8,0.3,4.1c1.7-0.1-26,31.5-26.1,29.8C222.2,131.8,191.2,104,192.9,103.8z"/>
					</g>
					<g id="XMLID_1399_">
						<path id="XMLID_1400_" class="st14" d="M192.9,103.8c-1.7,0.1,26-31.5,26.1-29.8c1-3,3-3.1,4.1-0.2
							c0.1-1.7,26.5,21.9,24.8,22.2c3,0.8,3.1,2.8,0.3,4.1c1.7-0.1-26,31.5-26.1,29.8C222.2,131.8,191.2,104,192.9,103.8z"/>
					</g>
					<g id="XMLID_1392_">
						<g id="XMLID_1397_">
							<path id="XMLID_1398_" class="st15" d="M195.8,104.2c1.2-4.3-0.8-4.2-4.1,0.2c2.2-3.1-84.8,96.2-82,93.5
								c-2.9,2.7,6.7,11.2,9,8c-2.3,3.2,86.7-98.4,83.9-95.7C205.4,107.5,198.2,101.1,195.8,104.2z"/>
						</g>
						<g id="XMLID_1395_">
							<path id="XMLID_1396_" class="st16" d="M215.1,121.6c2.4-3.2-86.7,98.4-83.9,95.7c-2.8,2.7,6.2,10.8,8.5,7.6
								c-2.3,3.2,84.7-96.1,82-93.5c3.9-3.9,3.8-5.9-0.3-4.2C224.2,124.3,217.5,118.4,215.1,121.6z"/>
						</g>
						<g id="XMLID_1393_">
							<path id="XMLID_1394_" class="st17" d="M202.8,110.6c2.2-3.3-86.8,98.3-83.9,95.7c-3,2.6,9.8,14,12,10.7
								c-2.2,3.3,86.8-98.3,83.9-95.7C217.8,118.7,205.1,107.3,202.8,110.6z"/>
						</g>
					</g>
					<g id="XMLID_1390_">
						<path id="XMLID_1391_" class="st18" d="M138,226.2c1.2,0.4-36.9,14.2-35.9,13c-2.6,1.8-3.6,1-2-1.8
							c-1.2,1.1,7.8-38.8,8.4-37.6C107.9,198.7,139.2,226.6,138,226.2z"/>
					</g>
					<g id="XMLID_1388_">
						<path id="XMLID_1389_" class="st19" d="M102.4,226.1c-0.2-0.4-3,12-2.6,11.7c-0.8,2,0.1,2.8,2,1.8c-0.3,0.4,11.6-3.9,11.2-4.1
							C113.3,235.7,102.2,225.7,102.4,226.1z"/>
					</g>
				</g>
			</g>
		</g>
	</g>
</g>
</svg>
