<?xml version="1.0" encoding="utf-8"?>
<!-- Generator: Adobe Illustrator 19.0.0, SVG Export Plug-In . SVG Version: 6.00 Build 0)  -->
<svg version="1.1" id="Layer_1" xmlns="http://www.w3.org/2000/svg" xmlns:xlink="http://www.w3.org/1999/xlink" x="0px" y="0px"
	 viewBox="245 340 672 95" style="enable-background:new 245 340 672 95;" xml:space="preserve">
<style type="text/css">
	.st0{fill:url(#XMLID_2_);}
	.st1{fill:url(#XMLID_3_);}
	.st2{fill:#EF3741;}
	.st3{font-family:'Harrington';}
	.st4{font-size:72px;}
	.st5{fill:#09AABB;}
</style>
<g id="XMLID_79_">
	
		<linearGradient id="XMLID_2_" gradientUnits="userSpaceOnUse" x1="256.6" y1="404.0284" x2="302.346" y2="404.0284" gradientTransform="matrix(1 0 0 -1 0 794)">
		<stop  offset="0" style="stop-color:#FFFFFF"/>
		<stop  offset="0" style="stop-color:#EF888E"/>
		<stop  offset="0.7398" style="stop-color:#EF3741"/>
	</linearGradient>
	<path id="XMLID_83_" class="st0" d="M300,352.9c-8.9,4.4-15.5,9.8-17.5,18.4c-0.9,3.6,0.2,6.4,3.3,8.7c3.9,2.8,7.9,5.5,11.8,8.3
		s5.4,6.4,4.4,10.7c-2.2,10.4-8.9,18.8-16.3,26.9c-2.1,2.2-6.2,0.9-7-2.3c-0.5-2.1-0.4-4.3-0.4-6.5c0-8.2,0-8.2-9.6-8.2
		c-11.1,0-12.2-0.9-12.2-10.5c0-6.7,0-13.1,0-19.7c0-4.3,2.5-6.5,7.6-6.7c3.6-0.1,7.3-0.1,10.9,0c2.3,0.1,3.3-0.8,3.3-2.7
		c-0.1-3.1,0-6,0-9.1c0.1-4.8,2.4-6.8,8-7.1c0.2,0,0.5,0,0.7,0C291.2,352.9,295.3,352.9,300,352.9z"/>
	
		<linearGradient id="XMLID_3_" gradientUnits="userSpaceOnUse" x1="290.2658" y1="404.2002" x2="340.725" y2="404.2002" gradientTransform="matrix(1 0 0 -1 0 794)">
		<stop  offset="0" style="stop-color:#FFFFFF"/>
		<stop  offset="0" style="stop-color:#00A8BB"/>
		<stop  offset="0.3225" style="stop-color:#02A8BB"/>
		<stop  offset="0.4386" style="stop-color:#09A9BB"/>
		<stop  offset="0.5215" style="stop-color:#14AABB"/>
		<stop  offset="0.5884" style="stop-color:#25ACBB"/>
		<stop  offset="0.6451" style="stop-color:#3BAFBB"/>
		<stop  offset="0.6786" style="stop-color:#4CB1BB"/>
	</linearGradient>
	<path id="XMLID_82_" class="st1" d="M309.4,427.3c1.8-4.6,3.9-9.1,5.4-13.8c2.2-6.4,3-12.9,1.4-19.5c-2-7.6-7.3-12.7-15.3-16
		c-2.3-0.9-4.6-1.8-6.7-3.1c-3.8-2.2-4.8-5.5-3.1-9.1c3.3-7,9.6-11.3,17.8-13.2c5.8-1.3,10.5,1.8,10,7c-0.3,2.7,0.1,5.6-0.1,8.5
		c-0.2,2.3,0.7,3.5,3.7,3.3c3.6-0.2,7.3-0.1,10.9,0c4.6,0.1,7.3,2.2,7.3,6.2c0.1,8.3,0.1,16.5,0,24.8c0,4.1-2.7,6.3-7.5,6.4
		c-3.4,0.1-6.8,0.2-10.2-0.1c-3.6-0.2-4.3,1-4.2,3.8c0.2,2.7,0.1,5.5,0,8.1C318.7,425.8,315.6,428,309.4,427.3z"/>
</g>
<text transform="matrix(1 0 0 1 361 411)" class="st2 st3 st4">e</text>
<text transform="matrix(1 0 0 1 396.4 411)" class="st5 st3 st4">Med Technology</text>
</svg>
