<?xml version="1.0" encoding="utf-8"?>
<!-- Generator: Adobe Illustrator 19.0.0, SVG Export Plug-In . SVG Version: 6.00 Build 0)  -->
<svg version="1.1" id="Layer_1" xmlns="http://www.w3.org/2000/svg" xmlns:xlink="http://www.w3.org/1999/xlink" x="0px" y="0px"
	 viewBox="0 0 235.4 238.5" style="enable-background:new 0 0 235.4 238.5;" xml:space="preserve">
<style type="text/css">
	.st0{fill:#574744;}
	.st1{fill:#FFFFFF;}
</style>
<g>
	<path class="st0" d="M229.7,122.2c0-62.3-50.5-112.8-112.8-112.8C54.6,9.4,4.1,59.9,4.1,122.2c0,42.4,23.4,79.2,57.9,98.5
		c0,0,0,0,0.1,0c2.4,1.3,4.8,2.6,7.3,3.7c0.2,0.1,0.4,0.2,0.5,0.2c6.5,3,13.3,5.3,20.3,7.1c0.2,0,0.3,0.1,0.5,0.1
		c2.7,0.6,5.4,1.2,8.1,1.6c0.1,0,0.1,0,0.2,0c2.6,0.4,5.3,0.7,8,1c0.5,0,1.1,0.1,1.6,0.1c2.7,0.2,5.4,0.3,8.1,0.3
		c2.3,0,4.6-0.1,6.9-0.2c0.6,0,1.2-0.1,1.8-0.1c1.8-0.1,3.6-0.3,5.3-0.5c0.5-0.1,1-0.1,1.5-0.2c6.4-0.9,12.6-2.3,18.6-4.2l0,0
		c0,0,0,0,0,0c2.5-0.8,4.9-1.7,7.3-2.6c0.3-0.1,0.6-0.2,0.9-0.4c4.8-1.9,9.5-4.2,13.9-6.8c0.3-0.2,0.5-0.3,0.8-0.4
		c2.2-1.3,4.4-2.7,6.6-4.2c0,0,0,0,0,0l0,0C210.3,195,229.7,160.9,229.7,122.2z"/>
	<g>
		<path class="st0" d="M225.3,122.2c0,59.8-48.5,108.3-108.3,108.3C57.1,230.5,8.6,182,8.6,122.2c0-59.8,48.5-108.3,108.3-108.3
			C176.8,13.8,225.3,62.3,225.3,122.2z"/>
		<path class="st1" d="M177.8,152.1c-0.7-17.2-14.5-30.4-31.5-30.4H82.2c-17.4,0-31.5,14.1-31.5,31.5v54.7
			c8.5,6.6,18,11.9,28.3,15.8v-48.8c0-0.8,0.6-1.4,1.4-1.4h1.7c0.8,0,1.4,0.6,1.4,1.4v50.3c10.5,3.4,21.8,5.3,33.5,5.3
			c9.7,0,19.1-1.3,28-3.7v-52c0-0.8,0.6-1.4,1.4-1.4h2.1c0.8,0,1.4,0.6,1.4,1.4v50.6c10.2-3.2,19.7-7.9,28.3-13.8V155
			C178.1,154,178,153.1,177.8,152.1z M116.5,115.4c15.4,0,27.8-12.5,27.8-27.8c0-15.4-12.5-27.8-27.8-27.8
			c-15.4,0-27.8,12.5-27.8,27.8C88.6,102.9,101.1,115.4,116.5,115.4z"/>
	</g>
</g>
</svg>
